<svg width="56" height="56" viewBox="0 0 56 56" fill="none" xmlns="http://www.w3.org/2000/svg">
<path d="M18.8317 35.0002H9.625C8.81925 35.0042 8.02072 34.8482 7.27559 34.5416C6.53047 34.2349 5.85353 33.7836 5.28394 33.2137C4.71434 32.6438 4.2634 31.9665 3.9572 31.2212C3.65099 30.4759 3.49559 29.6773 3.5 28.8716C3.49582 28.0662 3.65142 27.268 3.9578 26.5232C4.26417 25.7784 4.71523 25.1018 5.28487 24.5325C5.85451 23.9632 6.53141 23.5125 7.2764 23.2065C8.02138 22.9006 8.81965 22.7456 9.625 22.7502H9.71425C9.91596 22.7503 10.1115 22.6806 10.2678 22.553C10.424 22.4255 10.5314 22.2478 10.5717 22.0502C10.7317 21.2605 11.1602 20.5504 11.7845 20.041C12.7418 19.3095 11.592 17.8955 10.682 18.683C10.227 19.0558 9.82975 19.5056 9.51825 20.0131C9.317 20.3438 9.2155 20.7342 9.08775 21.1104C5.005 21.4009 1.75 24.7153 1.75 28.8716C1.75046 30.9603 2.58019 32.9634 4.05683 34.4407C5.53348 35.918 7.53624 36.7488 9.625 36.7502H18.9088M35.8855 36.7502H44.625C48.972 36.7502 52.5 33.2203 52.5 28.8716C52.5 25.9981 50.848 23.6251 48.5485 22.2548C48.8005 21.2678 49 20.2668 49 19.2466C49 12.4916 43.505 6.99658 36.75 6.99658C36.6163 6.99798 36.4847 7.02965 36.365 7.08929C32.816 7.20829 29.5662 8.89188 27.3368 11.6429C26.1818 11.0111 24.948 10.502 23.625 10.5002C22.442 10.4827 22.442 12.2677 23.625 12.2502C24.85 12.252 26.0435 12.6193 27.055 13.307C27.2433 13.4348 27.4741 13.4843 27.6982 13.4448C27.9223 13.4053 28.1222 13.2798 28.2555 13.0953C29.5536 11.2951 31.3894 9.95313 33.4987 9.26248C35.6079 8.57183 37.8819 8.56822 39.9934 9.25201C42.1049 9.93581 43.9451 11.2717 45.2491 13.0677C46.553 14.8638 47.2536 17.0271 47.25 19.2466C47.25 20.2861 47.096 21.3205 46.7915 22.3127C46.7301 22.5136 46.743 22.7296 46.8278 22.9218C46.9126 23.1139 47.0637 23.2691 47.2535 23.359C48.3007 23.8496 49.1861 24.629 49.8055 25.6055C50.4249 26.582 50.7526 27.7152 50.75 28.8716C50.7544 29.6773 50.599 30.4759 50.2928 31.2212C49.9866 31.9665 49.5357 32.6438 48.9661 33.2137C48.3965 33.7836 47.7195 34.2349 46.9744 34.5416C46.2293 34.8482 45.4307 35.0042 44.625 35.0002H35.8855M20.874 11.0479C20.7653 11.0492 20.658 11.0729 20.559 11.1178C20.0865 11.319 19.642 11.564 19.222 11.8475C18.1737 12.481 19.2185 14.0315 20.2003 13.2965C20.5258 13.076 20.8775 12.8836 21.2432 12.7296C22.1392 12.3533 21.8453 11.0147 20.874 11.0479ZM17.8115 13.5766C17.6688 13.5782 17.5288 13.6153 17.4041 13.6847C17.2795 13.7541 17.1741 13.8536 17.0975 13.9739C16.5209 14.8255 16.1177 15.7823 15.911 16.7897C15.8235 17.2185 15.7955 17.6646 15.7815 18.1161C15.1865 17.8886 14.6458 17.502 14 17.5002C12.817 17.4827 12.8135 19.2642 13.9965 19.2502C14.7788 19.2502 15.5418 19.5144 16.156 19.9992C16.2935 20.108 16.4605 20.1729 16.6354 20.1857C16.8103 20.1984 16.9849 20.1584 17.1368 20.0707C17.2886 19.983 17.4106 19.8518 17.4869 19.6939C17.5632 19.536 17.5903 19.3587 17.5647 19.1853C17.5264 18.9168 17.5059 18.6464 17.5035 18.3752C17.504 17.5609 17.6664 16.7547 17.9812 16.0038C18.137 15.6363 18.326 15.2898 18.5465 14.9643C18.6384 14.8319 18.6919 14.6768 18.7012 14.5159C18.7105 14.355 18.6752 14.1948 18.5992 14.0528C18.5232 13.9107 18.4094 13.7923 18.2704 13.7108C18.1314 13.6292 17.9726 13.5877 17.8115 13.5907V13.5766Z" fill="#F0DFA7"/>
<path d="M18.375 29.7483C18.1429 29.7483 17.9204 29.8405 17.7563 30.0046C17.5922 30.1687 17.5 30.3912 17.5 30.6233V48.1233C17.5 48.3554 17.5922 48.5781 17.7563 48.7422C17.9204 48.9063 18.1429 48.9983 18.375 48.9983H35.875C36.1071 48.9983 36.3296 48.9063 36.4937 48.7422C36.6578 48.5781 36.75 48.3554 36.75 48.1233V30.6233C36.75 30.3912 36.6578 30.1687 36.4937 30.0046C36.3296 29.8405 36.1071 29.7483 35.875 29.7483H18.375ZM19.25 31.4983H35V47.2483H19.25V31.4983Z" fill="#F0DFA7"/>
<path d="M27.125 34.9983C25.6865 34.9983 24.5 36.1848 24.5 37.6233C24.5 39.0635 25.6865 40.2483 27.125 40.2483C28.5635 40.2483 29.75 39.0635 29.75 37.6233C29.75 36.1848 28.5635 34.9983 27.125 34.9983ZM27.125 36.7483C27.6185 36.7483 28 37.1298 28 37.6233C28 38.1168 27.6185 38.4983 27.125 38.4983C27.0096 38.4999 26.8951 38.4784 26.7882 38.4351C26.6813 38.3917 26.5842 38.3274 26.5026 38.2458C26.421 38.1642 26.3566 38.0671 26.3132 37.9602C26.2699 37.8533 26.2484 37.7387 26.25 37.6233C26.25 37.1298 26.6315 36.7483 27.125 36.7483Z" fill="#F0DFA7"/>
<path fill-rule="evenodd" clip-rule="evenodd" d="M26.25 39.2V43.7501H28V39.2H26.25Z" fill="#F0DFA7"/>
<path d="M27.125 20.9983C23.7475 20.9983 21 23.7458 21 27.1233V31.1326H22.75V27.1252C22.75 24.6857 24.6855 22.7502 27.125 22.7502C29.5645 22.7502 31.5 24.6857 31.5 27.1252V31.1326H33.25V27.1252C33.25 23.746 30.5025 21.0002 27.125 21.0002V20.9983Z" fill="#F0DFA7"/>
</svg>
