<svg width="388" height="388" viewBox="0 0 388 388" fill="none" xmlns="http://www.w3.org/2000/svg">
<g clip-path="url(#clip0_51_444)">
<path d="M30.3276 343.305C30.3276 343.305 56.5247 368.98 118.524 362.728C180.524 356.476 188.245 348.773 226.923 365.962C232.43 368.41 238.363 370.002 244.323 371.182C251.303 372.565 258.413 373.367 265.531 373.812C273.179 374.277 280.846 374.358 288.503 374.053C296.095 373.763 303.676 373.13 311.195 372.11C318.058 371.179 324.887 369.933 331.564 368.186C337.058 366.748 342.523 364.989 347.566 362.484C351.174 360.692 354.863 358.428 357.156 355.208C358.511 353.306 359.333 350.912 358.83 348.633C358.417 346.761 357.026 344.988 356.078 343.305H30.3276Z" fill="white" stroke="#1A1A1A" stroke-width="0.584679" stroke-linecap="round" stroke-linejoin="round"/>
<path d="M205.528 343.025H381.043C381.305 339.945 382.904 317.351 368.122 305.006C351.492 291.117 319.219 294.452 297.683 319.594C266.964 327.404 236.246 335.215 205.528 343.025Z" stroke="#1A1A1A" stroke-width="0.877018" stroke-linecap="round" stroke-linejoin="round"/>
<path d="M29.6244 343.306H355.807C350.995 333.722 342.395 319.309 327.779 305.504C319.065 297.274 288.438 269.233 242.069 268.946C210.117 268.748 186.328 281.825 175.452 288.85C164.813 279.305 149.268 277.705 137.269 284.788C126.151 291.349 120.02 304.217 121.833 317.284C114.828 310.985 100.318 299.801 79.1814 296.161C66.3508 293.952 47.0738 290.633 35.3113 303.067C21.6254 317.534 29.1051 341.707 29.6244 343.306Z" fill="white" stroke="#1A1A1A" stroke-width="0.584679" stroke-linecap="round" stroke-linejoin="round"/>
<path d="M281.183 25.4962V32.9608H67.6225V25.4962C67.6224 24.3962 67.8389 23.3069 68.2598 22.2906C68.6807 21.2742 69.2977 20.3508 70.0755 19.5729C70.8534 18.7951 71.7768 18.1781 72.7931 17.7572C73.8095 17.3363 74.8988 17.1197 75.9988 17.1199H272.804C273.904 17.1194 274.994 17.3358 276.011 17.7566C277.027 18.1773 277.951 18.7943 278.729 19.5721C279.507 20.35 280.124 21.2735 280.546 22.29C280.967 23.3065 281.183 24.3959 281.183 25.4962Z" fill="#2672FF" stroke="#1A1A1A" stroke-width="0.29234" stroke-linecap="round" stroke-linejoin="round"/>
<path d="M281.183 32.9609V134.26C281.183 135.36 280.967 136.449 280.546 137.466C280.124 138.482 279.507 139.406 278.729 140.184C277.951 140.962 277.027 141.579 276.011 141.999C274.994 142.42 273.904 142.636 272.804 142.636H75.9988C74.8988 142.636 73.8095 142.42 72.7932 141.999C71.7768 141.578 70.8534 140.961 70.0756 140.183C69.2977 139.405 68.6807 138.482 68.2598 137.465C67.8389 136.449 67.6224 135.36 67.6225 134.26V32.9609H281.183Z" fill="white" stroke="#1A1A1A" stroke-width="0.584679" stroke-linecap="round" stroke-linejoin="round"/>
<path d="M288.8 13.7681H55.74V21.9937H288.8V13.7681Z" fill="white" stroke="#1A1A1A" stroke-width="0.584679" stroke-linecap="round" stroke-linejoin="round"/>
<path d="M67.6215 50.022H281.184" stroke="#1A1A1A" stroke-width="0.584679" stroke-linecap="round" stroke-linejoin="round" stroke-dasharray="3.51 3.51"/>
<path d="M206.492 59.4661H80.1123V83.8383H206.492V59.4661Z" stroke="#1A1A1A" stroke-width="0.584679" stroke-linecap="round" stroke-linejoin="round" stroke-dasharray="3.51 3.51"/>
<path d="M206.492 90.2361H80.1123V134.106H206.492V90.2361Z" stroke="#1A1A1A" stroke-width="0.584679" stroke-linecap="round" stroke-linejoin="round" stroke-dasharray="3.51 3.51"/>
<path d="M221.946 34.1799V193.985" stroke="#1A1A1A" stroke-width="0.584679" stroke-linecap="round" stroke-linejoin="round" stroke-dasharray="3.51 3.51"/>
<path d="M225.533 47.28H218.425V53.3731H225.533V47.28Z" fill="#2672FF" stroke="#1A1A1A" stroke-width="0.29234" stroke-linecap="round" stroke-linejoin="round"/>
<path d="M14.5102 343.305H383.344" stroke="#1A1A1A" stroke-width="0.877018" stroke-linecap="round" stroke-linejoin="round"/>
<path d="M315.116 332.595L318.762 343.025H322.316L326.48 332.595H315.116Z" fill="#2672FF" stroke="#1A1A1A" stroke-width="0.29234" stroke-linecap="round" stroke-linejoin="round"/>
<path d="M268.054 332.595L271.701 343.025H275.255L279.419 332.595H268.054Z" fill="#2672FF" stroke="#1A1A1A" stroke-width="0.29234" stroke-linecap="round" stroke-linejoin="round"/>
<path d="M295.604 270.452C295.604 270.452 325.257 264.463 337.037 276.242C348.817 288.022 346.786 313.178 345.567 319.367C344.348 325.556 342.927 333.299 330.334 334.019C317.742 334.74 281.996 338.334 263.209 331.146C250.921 317.969 248.755 277.652 248.755 277.652C248.755 277.652 256.744 266.475 274.075 268.93C291.406 271.384 295.604 270.452 295.604 270.452Z" fill="white" stroke="#1A1A1A" stroke-width="0.584679" stroke-linecap="round" stroke-linejoin="round"/>
<path d="M301.463 270.171C301.463 270.171 310.024 273.261 310.633 277.996L301.463 270.171Z" fill="white"/>
<path d="M301.463 270.171C301.463 270.171 310.024 273.261 310.633 277.996" stroke="#1A1A1A" stroke-width="0.584679" stroke-linecap="round" stroke-linejoin="round"/>
<path d="M282.199 272.748C282.199 272.748 278.238 274.345 278.137 278.538L282.199 272.748Z" fill="white"/>
<path d="M282.199 272.748C282.199 272.748 278.238 274.345 278.137 278.538" stroke="#1A1A1A" stroke-width="0.584679" stroke-linecap="round" stroke-linejoin="round"/>
<path d="M253.257 278.538C253.257 278.838 262.197 285.182 274.481 282.132C286.765 279.081 294.081 283.629 296.112 285.226C298.143 286.824 322.413 289.719 329.014 284.528L335.615 279.337" fill="white"/>
<path d="M253.257 278.538C253.257 278.838 262.197 285.182 274.481 282.132C286.765 279.081 294.081 283.629 296.112 285.226C298.143 286.824 322.413 289.719 329.014 284.528L335.615 279.337" stroke="#1A1A1A" stroke-width="0.584679" stroke-linecap="round" stroke-linejoin="round"/>
<path d="M309.549 178.281L300.885 174.084C300.885 174.084 295.155 169.719 289.699 165.611C290.028 165.247 290.338 164.867 290.628 164.471C285.765 160.417 284.175 154.369 283.668 150.93C281.705 148.887 282.739 144.907 283.976 141.927C286.768 141.824 288.953 140.707 288.597 138.066C288.241 135.428 285.602 134.969 284.637 135.73C283.671 134.664 284.229 133.701 285.144 130.958C280.768 130.285 279.696 125.658 279.437 123.655C279.189 123.519 279.052 123.445 279.052 123.445C279.052 123.445 276.209 122.835 272.958 126.895C272.186 127.861 271.123 129.237 269.998 130.83C268.73 129.382 266.864 126.271 269.742 122.564C273.736 117.419 279.693 120.331 280.44 120.872C285.99 120.057 295.198 121.277 297.634 134.818C300.073 148.357 308.062 157.024 313.207 160.813C318.352 164.605 316.862 174.625 309.549 178.281Z" fill="#1A1A1A" stroke="#1A1A1A" stroke-width="0.29234" stroke-linecap="round" stroke-linejoin="round"/>
<path d="M263.209 170.665C263.209 170.665 246.453 183.626 237.11 199.842C235.282 187.827 228.986 159.596 226.955 160.611C222.487 164.673 219.034 163.861 218.425 165.892C217.816 167.923 217.816 215.043 226.346 217.683C234.876 220.323 265.138 218.902 265.138 218.902L268.223 206.512" fill="#FFE1A0"/>
<path d="M263.209 170.665C263.209 170.665 246.453 183.626 237.11 199.842C235.282 187.827 228.986 159.596 226.955 160.611C222.487 164.673 219.034 163.861 218.425 165.892C217.816 167.923 217.816 215.043 226.346 217.683C234.876 220.323 265.138 218.902 265.138 218.902L268.223 206.512" stroke="#1A1A1A" stroke-width="0.584679" stroke-linecap="round" stroke-linejoin="round"/>
<path d="M219.197 166.52C219.197 166.52 219.145 167.925 222.219 167.587C225.293 167.248 227.715 164.357 227.403 162.22C227.09 160.084 225.032 159.668 223.599 160.136C222.167 160.605 218.494 163.109 219.197 166.52Z" fill="#2672FF" stroke="#1A1A1A" stroke-width="0.29234" stroke-linecap="round" stroke-linejoin="round"/>
<path d="M263.026 326.264C262.331 324.968 261.821 324.108 261.821 324.108C261.821 324.108 251.192 325.598 250.745 325.801C250.516 325.905 250.693 327.023 250.846 328.271C254.712 330.075 259.812 328.885 263.026 326.264Z" fill="#2672FF" stroke="#1A1A1A" stroke-width="0.29234" stroke-linecap="round" stroke-linejoin="round"/>
<path d="M263.026 326.264C259.812 328.885 254.712 330.075 250.846 328.271C250.992 329.457 251.118 330.76 250.854 331.42C247.265 332.3 238.058 337.581 235.486 339.206C233.357 340.55 229.979 343.424 243.508 343.302C246.331 343.276 267.034 340.424 266.899 336.43C266.807 333.717 264.498 329.007 263.026 326.264Z" fill="white" stroke="#1A1A1A" stroke-width="0.584679" stroke-linecap="round" stroke-linejoin="round"/>
<path d="M186.941 328.455C190.445 330.38 194.41 331.31 198.404 331.144C198.164 329.98 197.864 328.83 197.505 327.697C197.505 327.697 191.548 325.327 188.569 325.53C188.433 326.095 187.699 327.039 186.58 328.119C186.68 328.251 186.803 328.364 186.941 328.455Z" fill="#2672FF" stroke="#1A1A1A" stroke-width="0.29234" stroke-linecap="round" stroke-linejoin="round"/>
<path d="M198.404 331.144C194.41 331.309 190.446 330.379 186.941 328.454C186.803 328.364 186.68 328.251 186.58 328.119C184.348 330.275 180.577 332.978 176.924 334.331C171.441 336.362 165.889 340.289 168.123 342.929C170.357 345.569 178.008 344.96 182.544 343.809C187.08 342.658 192.089 342.455 196.151 341.44C200.214 340.424 198.86 334.263 198.589 332.232C198.542 331.879 198.477 331.511 198.404 331.144Z" fill="white" stroke="#1A1A1A" stroke-width="0.584679" stroke-linecap="round" stroke-linejoin="round"/>
<path d="M263.92 227.703C263.92 227.703 228.58 224.859 215.311 242.597C202.041 260.334 190.126 296.351 187.147 324.379C186.47 328.035 195.948 329.118 197.709 328.712C202.177 325.327 224.247 282.946 231.153 275.364C238.058 267.781 247.062 246.219 247.062 246.219L276.227 241.954L272.047 227.535" fill="white"/>
<path d="M263.92 227.703C263.92 227.703 228.58 224.859 215.311 242.597C202.041 260.334 190.126 296.351 187.147 324.379C186.47 328.035 195.948 329.118 197.709 328.712C202.177 325.327 224.247 282.946 231.153 275.364C238.058 267.781 247.062 246.219 247.062 246.219L276.227 241.954L272.047 227.535" stroke="#1A1A1A" stroke-width="0.584679" stroke-linecap="round" stroke-linejoin="round"/>
<path d="M318.351 236.368C318.351 236.368 329.319 256.137 304.811 268.729C280.303 281.322 245.641 257.22 245.641 257.22C245.641 257.22 265.138 296.487 263.209 324.312C261.686 326.952 250.312 327.764 248.89 326.139C247.469 324.515 214.16 268.662 225.737 249.164C237.313 229.666 269.201 228.65 269.201 228.65L318.351 236.368Z" fill="white" stroke="#1A1A1A" stroke-width="0.584679" stroke-linecap="round" stroke-linejoin="round"/>
<path d="M264.611 231.019C264.611 231.019 288.914 241.935 303.165 240.466C317.416 238.997 315.252 235.325 315.252 235.325L264.611 227.267L261.733 229.437L264.611 231.019Z" fill="#2672FF" stroke="#1A1A1A" stroke-width="0.29234" stroke-linecap="round" stroke-linejoin="round"/>
<path d="M260.67 175.641C260.67 175.641 250.109 186.405 252.749 208.137C254.374 222.964 260.67 228.65 260.67 228.65C260.67 228.65 300.072 240.227 309.008 238.806C317.945 237.384 315.972 229.869 316.248 223.37C316.523 216.871 310.126 172.594 300.377 168.532C290.628 164.47 286.667 163.658 286.667 163.658L271.028 168.126L263.626 170.867" fill="#FFE1A0"/>
<path d="M260.67 175.641C260.67 175.641 250.109 186.405 252.749 208.137C254.374 222.964 260.67 228.65 260.67 228.65C260.67 228.65 300.072 240.227 309.008 238.806C317.945 237.384 315.972 229.869 316.248 223.37C316.523 216.871 310.126 172.594 300.377 168.532C290.628 164.47 286.667 163.658 286.667 163.658L271.028 168.126L263.626 170.867" stroke="#1A1A1A" stroke-width="0.584679" stroke-linecap="round" stroke-linejoin="round"/>
<path d="M290.083 163.994C290.083 163.994 304.743 166.196 316.016 181.937C327.288 197.677 327.491 229.057 319.976 236.775C312.461 244.492 291.44 252.312 276.614 224.791C274.989 218.8 278.848 214.332 281.488 214.535C285.144 214.738 295.198 216.769 302.306 225.299C307.079 224.284 310.363 219.236 307.113 199.842" fill="#FFE1A0"/>
<path d="M290.083 163.994C290.083 163.994 304.743 166.196 316.016 181.937C327.288 197.677 327.491 229.057 319.976 236.775C312.461 244.492 291.44 252.312 276.614 224.791C274.989 218.8 278.848 214.332 281.488 214.535C285.144 214.738 295.198 216.769 302.306 225.299C307.079 224.284 310.363 219.236 307.113 199.842" stroke="#1A1A1A" stroke-width="0.584679" stroke-linecap="round" stroke-linejoin="round"/>
<path d="M282.656 215.804C282.656 215.804 279.363 212.554 272.047 215.55C267.576 217.378 267.677 219.968 267.677 219.968L284.535 220.171C284.535 220.171 283.824 217.073 282.656 215.804Z" fill="white" stroke="#1A1A1A" stroke-width="0.584679" stroke-linecap="round" stroke-linejoin="round"/>
<path d="M260.535 215.153H217.206V219.3H260.535V215.153Z" fill="white" stroke="#1A1A1A" stroke-width="0.584679" stroke-linecap="round" stroke-linejoin="round"/>
<path d="M221.945 219.284H219.623L206.492 187.352H208.811L221.945 219.284Z" fill="#2672FF" stroke="#1A1A1A" stroke-width="0.29234" stroke-linecap="round" stroke-linejoin="round"/>
<path d="M219.623 219.284H168.038L154.496 187.352H206.492L219.623 219.284Z" fill="white" stroke="#1A1A1A" stroke-width="0.584679" stroke-linecap="round" stroke-linejoin="round"/>
<path d="M290.932 219.3H134.341V225.502H290.932V219.3Z" fill="#2672FF" stroke="#1A1A1A" stroke-width="0.29234" stroke-linecap="round" stroke-linejoin="round"/>
<path d="M226.244 162.134C226.244 162.134 228.072 152.893 226.498 150.608C224.924 148.324 222.995 146.597 221.725 146.597C220.456 146.597 216.699 149.644 216.699 151.979C216.699 154.315 216.394 158.933 217.511 160.585C218.628 162.236 219.948 164.318 219.948 165.74C219.948 167.161 225.076 167.009 226.244 162.134Z" fill="white" stroke="#1A1A1A" stroke-width="0.584679" stroke-linecap="round" stroke-linejoin="round"/>
<path d="M224.112 152.243C224.112 152.243 225.934 160.155 223.286 160.645C220.638 161.135 219.623 160.301 219.623 160.301" fill="white"/>
<path d="M224.112 152.243C224.112 152.243 225.934 160.155 223.286 160.645C220.638 161.135 219.623 160.301 219.623 160.301" stroke="#1A1A1A" stroke-width="0.584679" stroke-linecap="round" stroke-linejoin="round"/>
<path d="M283.668 150.93C281.705 148.887 282.739 144.907 283.976 141.927C286.768 141.824 288.953 140.707 288.597 138.066C288.241 135.428 285.602 134.969 284.636 135.73C283.671 134.664 284.229 133.701 285.144 130.958C280.767 130.285 279.696 125.658 279.437 123.655C279.189 123.519 279.052 123.445 279.052 123.445C279.052 123.445 276.209 122.835 272.958 126.895C272.186 127.861 271.123 129.237 269.998 130.829C266.385 135.941 262.149 143.271 264.935 146.291C266.653 148.159 268.98 149.354 271.499 149.662L271.739 153.098C272.044 159.901 267.374 167.01 263.209 170.665C274.95 176.489 285.383 170.412 289.699 165.611C290.028 165.247 290.338 164.867 290.628 164.471C285.765 160.417 284.175 154.368 283.668 150.93Z" fill="white" stroke="#1A1A1A" stroke-width="0.584679" stroke-linecap="round" stroke-linejoin="round"/>
<path d="M275.34 149.112C275.34 149.112 272.457 151.653 271.554 151.236V149.916L275.34 149.112Z" fill="#2672FF" stroke="#1A1A1A" stroke-width="0.29234" stroke-linecap="round" stroke-linejoin="round"/>
<path d="M275.395 148.921C274.166 149.45 272.837 149.702 271.499 149.662L275.395 148.921Z" fill="white"/>
<path d="M275.395 148.921C274.166 149.45 272.837 149.702 271.499 149.662" stroke="#1A1A1A" stroke-width="0.584679" stroke-linecap="round" stroke-linejoin="round"/>
<path d="M63.1325 276.312C61.0696 273.391 57.7983 271.084 54.2223 271.117C49.719 271.158 46.0571 274.716 41.7325 275.973C35.9191 277.662 29.1769 274.555 26.4348 269.157C23.6927 263.76 25.0293 256.674 29.352 252.436C31.5954 250.236 34.7356 248.379 35.1204 245.261C35.4347 242.714 33.6759 240.353 31.6553 238.771C29.6348 237.189 27.2554 236.055 25.4612 234.22C21.8603 230.537 21.486 224.156 24.6316 220.077C27.7773 215.999 34.0443 214.74 38.5211 217.287C40.8912 218.635 42.7206 220.861 45.2281 221.933C48.8703 223.49 53.0541 222.287 56.7697 220.915C60.4853 219.542 64.4387 217.984 68.2934 218.896C69.7996 219.252 71.1951 219.973 72.3572 220.996C73.5193 222.018 74.4123 223.31 74.9578 224.759C75.5032 226.207 75.6843 227.767 75.4851 229.302C75.2859 230.837 74.7125 232.3 73.8154 233.561C72.1328 235.927 69.2498 237.792 69.1225 240.693C68.9928 243.648 71.9749 245.876 74.8784 246.444C77.7819 247.013 80.8021 246.505 83.7274 246.947C86.6528 247.389 89.7665 249.289 90.0206 252.237C90.4166 256.832 83.864 259.877 84.4045 264.457C84.6559 266.588 86.3966 268.173 87.7179 269.864C89.2811 271.864 90.3673 274.3 90.4484 276.837C90.5295 279.374 89.5159 281.998 87.5216 283.569C85.0072 285.549 81.5238 285.579 78.3237 285.52C75.5715 285.468 70.2194 286.468 67.7483 285.064C65.3435 283.698 64.8293 278.574 63.1325 276.312Z" fill="white" stroke="#1A1A1A" stroke-width="0.584679" stroke-linecap="round" stroke-linejoin="round"/>
<path d="M59.5974 203.159C59.281 199.295 61.2899 194.942 65.0304 193.92C67.5566 193.229 70.7098 193.995 72.4938 192.077C74.6318 189.78 72.7227 186.02 73.3788 182.951C73.7943 181.007 75.3006 179.402 77.1082 178.575C78.9159 177.749 80.9878 177.634 82.9525 177.936C84.9899 178.249 86.9383 178.989 88.6709 180.105C90.4035 181.222 91.8813 182.691 93.0078 184.418C94.1344 186.144 94.8845 188.088 95.2093 190.124C95.534 192.159 95.426 194.24 94.8925 196.231C93.9307 199.82 91.589 203.307 92.3865 206.936C93.2737 210.973 97.7412 213.425 98.7585 217.432C99.4283 220.07 98.4525 222.837 97.248 225.278C96.0435 227.718 94.5722 230.106 94.1638 232.797C93.6452 236.213 94.9043 239.611 95.8786 242.926C96.853 246.242 97.5218 249.961 95.9423 253.034C94.711 255.43 92.2483 257.032 89.6375 257.695C87.0267 258.357 84.2705 258.175 81.6178 257.707C77.8048 257.035 74.0472 255.756 70.8798 253.529C67.7124 251.303 65.1674 248.068 64.2097 244.317C63.214 240.416 64.0126 236.395 65.4058 232.699C66.5104 229.769 68.7302 226.657 68.5895 223.402C68.4455 220.069 65.8609 216.947 64.2141 214.211C62.16 210.798 59.9306 207.23 59.5974 203.159Z" fill="white" stroke="#1A1A1A" stroke-width="0.584679" stroke-linecap="round" stroke-linejoin="round"/>
<path d="M37.7993 229.734C37.7993 229.734 58.3804 236.504 63.9318 253.023C69.4833 269.542 74.983 284.462 83.4559 285.26" fill="white"/>
<path d="M37.7993 229.734C37.7993 229.734 58.3804 236.504 63.9318 253.023C69.4833 269.542 74.983 284.462 83.4559 285.26" stroke="#1A1A1A" stroke-width="0.584679" stroke-linecap="round" stroke-linejoin="round"/>
<path d="M58.6512 231.697C58.6512 232.035 56.2208 236.753 58.113 243.094L58.6512 231.697Z" fill="white"/>
<path d="M58.6512 231.697C58.6512 232.035 56.2208 236.753 58.113 243.094" stroke="#1A1A1A" stroke-width="0.584679" stroke-linecap="round" stroke-linejoin="round"/>
<path d="M52.6304 258.913C52.6304 258.913 63.5047 266.909 67.9496 264.434L52.6304 258.913Z" fill="white"/>
<path d="M52.6304 258.913C52.6304 258.913 63.5047 266.909 67.9496 264.434" stroke="#1A1A1A" stroke-width="0.584679" stroke-linecap="round" stroke-linejoin="round"/>
<path d="M40.9813 238.129C40.9813 238.129 49.9269 242.518 52.6303 237.92L40.9813 238.129Z" fill="white"/>
<path d="M40.9813 238.129C40.9813 238.129 49.9269 242.518 52.6303 237.92" stroke="#1A1A1A" stroke-width="0.584679" stroke-linecap="round" stroke-linejoin="round"/>
<path d="M82.4818 193.985C82.4818 193.985 74.4932 232.306 81.534 250.315L82.4818 193.985Z" fill="white"/>
<path d="M82.4818 193.985C82.4818 193.985 74.4932 232.306 81.534 250.315" stroke="#1A1A1A" stroke-width="0.584679" stroke-linecap="round" stroke-linejoin="round"/>
<path d="M85.8669 203.318C85.8669 203.318 83.0276 209.345 79.7759 211.483L85.8669 203.318Z" fill="white"/>
<path d="M85.8669 203.318C85.8669 203.318 83.0276 209.345 79.7759 211.483" stroke="#1A1A1A" stroke-width="0.584679" stroke-linecap="round" stroke-linejoin="round"/>
<path d="M71.1081 212.673C71.2435 213.215 73.7007 221.065 78.6328 222.15L71.1081 212.673Z" fill="white"/>
<path d="M71.1081 212.673C71.2435 213.215 73.7007 221.065 78.6328 222.15" stroke="#1A1A1A" stroke-width="0.584679" stroke-linecap="round" stroke-linejoin="round"/>
<path d="M78.6329 196.154C78.6329 196.154 78.5719 200.939 81.038 202.158L78.6329 196.154Z" fill="white"/>
<path d="M78.6329 196.154C78.6329 196.154 78.5719 200.939 81.038 202.158" stroke="#1A1A1A" stroke-width="0.584679" stroke-linecap="round" stroke-linejoin="round"/>
<path d="M102.294 287.955C101.525 283.528 104.999 279.361 108.988 277.292C112.978 275.223 117.543 274.563 121.706 272.869C129.951 269.515 136.315 261.884 138.136 253.171C138.967 249.19 138.7 244.551 135.76 241.742C134.724 240.752 133.434 240.069 132.347 239.137C131.259 238.204 130.342 236.878 130.473 235.452C130.609 233.969 131.826 232.817 133.098 232.042C134.37 231.268 135.797 230.701 136.857 229.656C138.88 227.661 139.052 224.391 138.254 221.663C136.46 215.533 130.087 211.084 123.714 211.511C117.34 211.939 111.619 217.2 110.66 223.515C110.399 225.232 110.404 227.126 109.301 228.468C107.663 230.461 104.503 230.147 102.126 229.144C99.7485 228.14 97.437 226.605 94.859 226.713C90.8075 226.884 88.1534 230.886 86.1923 234.435C83.3463 239.586 80.4816 244.78 78.7176 250.394C76.9536 256.008 76.3456 262.142 78.0656 267.769C80.3294 275.176 86.245 280.797 91.9288 286.058C95.3367 285.515 99.3235 286.199 102.294 287.955Z" fill="white" stroke="#1A1A1A" stroke-width="0.584679" stroke-linecap="round" stroke-linejoin="round"/>
<path d="M94.7357 283.894C94.7357 283.894 94.7357 261.147 119.92 235.353L94.7357 283.894Z" fill="white"/>
<path d="M94.7357 283.894C94.7357 283.894 94.7357 261.147 119.92 235.353" stroke="#1A1A1A" stroke-width="0.584679" stroke-linecap="round" stroke-linejoin="round"/>
<path d="M126.826 237.13C126.826 237.13 127.382 240.93 115.578 240.045L126.826 237.13Z" fill="white"/>
<path d="M126.826 237.13C126.826 237.13 127.382 240.93 115.578 240.045" stroke="#1A1A1A" stroke-width="0.584679" stroke-linecap="round" stroke-linejoin="round"/>
<path d="M107.074 239.059C107.074 239.059 104.016 246.312 108.49 249.058L107.074 239.059Z" fill="white"/>
<path d="M107.074 239.059C107.074 239.059 104.016 246.312 108.49 249.058" stroke="#1A1A1A" stroke-width="0.584679" stroke-linecap="round" stroke-linejoin="round"/>
<path d="M118.651 255.104C118.651 255.104 106.08 260.109 102.286 259.232L118.651 255.104Z" fill="white"/>
<path d="M118.651 255.104C118.651 255.104 106.08 260.109 102.286 259.232" stroke="#1A1A1A" stroke-width="0.584679" stroke-linecap="round" stroke-linejoin="round"/>
<path d="M94.2279 259.335C94.2279 259.335 99.0352 265.624 97.8005 269.533L94.2279 259.335Z" fill="white"/>
<path d="M94.2279 259.335C94.2279 259.335 99.0352 265.624 97.8005 269.533" stroke="#1A1A1A" stroke-width="0.584679" stroke-linecap="round" stroke-linejoin="round"/>
<path d="M108.344 281.66L63.0517 282.676L63.7705 286.738H107.785L108.344 281.66Z" fill="white" stroke="#1A1A1A" stroke-width="0.584679" stroke-linecap="round" stroke-linejoin="round"/>
<path d="M64.1996 289.162L70.5991 325.327H103.538L107.518 289.162H64.1996Z" fill="white" stroke="#1A1A1A" stroke-width="0.584679" stroke-linecap="round" stroke-linejoin="round"/>
<path d="M107.785 286.738H63.7705L64.1995 289.162H107.518L107.785 286.738Z" fill="#2672FF" stroke="#1A1A1A" stroke-width="0.29234" stroke-linecap="round" stroke-linejoin="round"/>
<path d="M70.5991 325.327L74.6286 348.099H101.032L103.538 325.327H70.5991Z" fill="#2672FF" stroke="#1A1A1A" stroke-width="0.29234" stroke-linecap="round" stroke-linejoin="round"/>
<path d="M88.3103 38.9529H82.8818C82.1374 38.9529 81.534 39.5563 81.534 40.3007V43.6981C81.534 44.4425 82.1374 45.0459 82.8818 45.0459H88.3103C89.0547 45.0459 89.6581 44.4425 89.6581 43.6981V40.3007C89.6581 39.5563 89.0547 38.9529 88.3103 38.9529Z" fill="white" stroke="#1A1A1A" stroke-width="0.584679" stroke-linecap="round" stroke-linejoin="round"/>
<path d="M153.009 39.4607H102.775C102.093 39.4607 101.54 40.0138 101.54 40.6962V43.8105C101.54 44.4929 102.093 45.046 102.775 45.046H153.009C153.691 45.046 154.245 44.4929 154.245 43.8105V40.6962C154.245 40.0138 153.691 39.4607 153.009 39.4607Z" fill="white" stroke="#1A1A1A" stroke-width="0.584679" stroke-linecap="round" stroke-linejoin="round"/>
<path d="M48.9635 182.385C55.4054 182.385 60.6276 177.163 60.6276 170.721C60.6276 164.279 55.4054 159.057 48.9635 159.057C42.5215 159.057 37.2993 164.279 37.2993 170.721C37.2993 177.163 42.5215 182.385 48.9635 182.385Z" fill="white" stroke="#1A1A1A" stroke-width="0.584679" stroke-linecap="round" stroke-linejoin="round"/>
<path d="M41.2709 140.999C44.1123 140.999 46.4157 138.696 46.4157 135.854C46.4157 133.013 44.1123 130.709 41.2709 130.709C38.4295 130.709 36.126 133.013 36.126 135.854C36.126 138.696 38.4295 140.999 41.2709 140.999Z" fill="white" stroke="#1A1A1A" stroke-width="0.584679" stroke-linecap="round" stroke-linejoin="round"/>
<path d="M306.048 53.0894C312.173 53.0894 317.138 48.1243 317.138 41.9995C317.138 35.8748 312.173 30.9097 306.048 30.9097C299.923 30.9097 294.958 35.8748 294.958 41.9995C294.958 48.1243 299.923 53.0894 306.048 53.0894Z" fill="white" stroke="#1A1A1A" stroke-width="0.584679" stroke-linecap="round" stroke-linejoin="round"/>
<path d="M312.005 46.9472H300.092C300.092 46.9472 299.981 45.5685 300.698 45.2367C301.416 44.9064 301.966 38.1235 304.008 37.2962C304.327 37.1665 304.595 37.0573 304.822 36.9659C304.757 36.8084 304.723 36.6395 304.723 36.469C304.723 36.2735 304.766 36.0805 304.849 35.9036C304.933 35.7268 305.054 35.5706 305.205 35.4462C305.356 35.3218 305.532 35.2324 305.721 35.1843C305.911 35.1362 306.109 35.1306 306.301 35.168C306.492 35.2054 306.674 35.2847 306.831 35.4004C306.989 35.5161 307.119 35.6653 307.212 35.8372C307.305 36.009 307.359 36.1994 307.369 36.3945C307.38 36.5897 307.348 36.7848 307.274 36.9659C307.5 37.0573 307.77 37.1665 308.088 37.2962C310.129 38.1235 310.68 44.9064 311.397 45.2367C312.114 45.5685 312.005 46.9472 312.005 46.9472Z" fill="#1A1A1A" stroke="#1A1A1A" stroke-width="0.584679" stroke-linecap="round" stroke-linejoin="round"/>
<path d="M307.954 46.9473C307.954 47.4529 307.753 47.9379 307.396 48.2954C307.038 48.653 306.553 48.8539 306.047 48.8539C305.542 48.8539 305.057 48.653 304.699 48.2954C304.342 47.9379 304.141 47.4529 304.141 46.9473H307.954Z" fill="#1A1A1A" stroke="#1A1A1A" stroke-width="0.584679" stroke-linecap="round" stroke-linejoin="round"/>
<path d="M221.946 161.621V193.09" stroke="#1A1A1A" stroke-width="0.584679" stroke-linecap="round" stroke-linejoin="round" stroke-dasharray="3.51 3.51"/>
<path d="M34.3364 93.5516L32.0247 96.8504C29.2367 94.8973 25.9019 93.8772 22.4984 93.9364C19.0949 93.9956 15.7976 95.131 13.0792 97.1798L10.6562 93.9616C14.0537 91.4 18.1753 89.9805 22.4296 89.9068C26.6839 89.8332 30.8522 91.1091 34.3364 93.5516Z" fill="white" stroke="#1A1A1A" stroke-width="0.584679" stroke-linecap="round" stroke-linejoin="round"/>
<path d="M40.3366 84.8174L36.8534 89.7879C32.6526 86.8451 27.6278 85.3081 22.4995 85.3972C17.3712 85.4864 12.4029 87.1972 8.30691 90.2843L4.65601 85.4353C9.7752 81.5755 15.9855 79.4366 22.3958 79.3256C28.8061 79.2146 35.0868 81.1371 40.3366 84.8174Z" fill="white" stroke="#1A1A1A" stroke-width="0.584679" stroke-linecap="round" stroke-linejoin="round"/>
<path d="M29.7119 100.152L27.3979 103.454C26.0045 102.476 24.3373 101.966 22.6355 101.995C20.9338 102.025 19.2851 102.592 17.9263 103.617L15.5033 100.398C17.542 98.8613 20.015 98.0097 22.5675 97.9654C25.1201 97.9212 27.6212 98.6865 29.7119 100.152Z" fill="white" stroke="#1A1A1A" stroke-width="0.584679" stroke-linecap="round" stroke-linejoin="round"/>
<path d="M26.6255 111.233C26.4394 111.841 26.1121 112.396 25.6703 112.853C25.2285 113.311 24.6848 113.657 24.0836 113.864C23.4824 114.07 22.8408 114.132 22.2112 114.043C21.5816 113.955 20.982 113.718 20.4613 113.353C19.9406 112.989 19.5136 112.506 19.2153 111.944C18.9169 111.383 18.7557 110.759 18.7448 110.123C18.7339 109.487 18.8736 108.858 19.1524 108.287C19.4313 107.715 19.8414 107.218 20.3493 106.836H20.3504C21.03 106.324 21.8542 106.04 22.7048 106.025C23.5555 106.011 24.3889 106.266 25.0857 106.754C25.7824 107.242 26.3067 107.939 26.5833 108.743C26.8599 109.548 26.8747 110.419 26.6255 111.233Z" fill="white" stroke="#1A1A1A" stroke-width="0.584679" stroke-linecap="round" stroke-linejoin="round"/>
</g>
<defs>
<clipPath id="clip0_51_444">
<rect width="388" height="388" fill="white"/>
</clipPath>
</defs>
</svg>
