<svg width="78" height="12" viewBox="0 0 78 12" fill="none" xmlns="http://www.w3.org/2000/svg">
<path d="M5.33792 11.9765C4.31513 11.9765 3.40084 11.7392 2.59441 11.264C1.78798 10.7894 1.15413 10.1054 0.692223 9.21335C0.230318 8.32126 0 7.24835 0 5.99651C0 4.74467 0.233491 3.66288 0.700471 2.76762C1.16745 1.873 1.80447 1.18775 2.61027 0.712526C3.4167 0.237932 4.32591 0 5.33792 0C5.98001 0 6.58151 0.0913657 7.14239 0.274097C7.70327 0.456829 8.20325 0.723947 8.64104 1.07672C9.07947 1.42886 9.43795 1.85967 9.71776 2.36853C9.99693 2.87739 10.1809 3.4554 10.2698 4.10258H8.14043C8.0827 3.7479 7.97229 3.43446 7.80796 3.16354C7.64363 2.89198 7.43996 2.66103 7.19759 2.47068C6.95522 2.28034 6.67922 2.13694 6.37149 2.0405C6.06313 1.94406 5.73193 1.89584 5.37725 1.89584C4.74023 1.89584 4.17681 2.05383 3.68635 2.36916C3.1959 2.68514 2.81203 3.14958 2.5354 3.76249C2.25876 4.3754 2.12108 5.12029 2.12108 5.99715C2.12108 6.874 2.26067 7.63158 2.53984 8.23941C2.81901 8.84725 3.20224 9.30661 3.69016 9.61688C4.17808 9.92778 4.73769 10.0826 5.36901 10.0826C5.71861 10.0826 6.04473 10.0369 6.34738 9.94554C6.65003 9.85417 6.9254 9.71586 7.17284 9.53059C7.42029 9.34532 7.62713 9.12135 7.79147 8.8574C7.9558 8.59409 8.07191 8.29017 8.1398 7.94565H10.2691C10.1911 8.50399 10.0198 9.02744 9.75646 9.51536C9.49315 10.0033 9.14863 10.4309 8.72289 10.7989C8.29779 11.1669 7.80035 11.455 7.23185 11.6637C6.66272 11.8725 6.03141 11.9772 5.33728 11.9772L5.33792 11.9765Z" fill="#E8EFFC"/>
<path d="M11.3374 11.82V3.06919H13.3335V4.54055H13.4274C13.5841 4.02916 13.8582 3.63641 14.2491 3.36232C14.6405 3.08822 15.0866 2.95117 15.5878 2.95117C15.6976 2.95117 15.8238 2.95625 15.9672 2.96703C16.1106 2.97782 16.2293 2.99051 16.3238 3.00637V4.90094C16.235 4.86985 16.0967 4.84384 15.9089 4.8229C15.7211 4.80196 15.5409 4.79181 15.3689 4.79181C14.9876 4.79181 14.6488 4.87302 14.3512 5.03418C14.0536 5.19598 13.8201 5.41805 13.6507 5.69976C13.4813 5.98147 13.3963 6.31013 13.3963 6.68575V11.8206H11.338L11.3374 11.82Z" fill="#E8EFFC"/>
<path d="M20.4204 11.9925C19.5436 11.9925 18.7873 11.8085 18.1509 11.4405C17.5139 11.0725 17.0247 10.5522 16.6833 9.87901C16.3413 9.20582 16.1707 8.41272 16.1707 7.4997C16.1707 6.58667 16.3401 5.80499 16.6795 5.12419C17.0183 4.44339 17.4961 3.91232 18.1122 3.531C18.7276 3.15031 19.4535 2.95996 20.2885 2.95996C20.8259 2.95996 21.336 3.04625 21.8188 3.2182C22.3017 3.39014 22.7293 3.65662 23.103 4.01701C23.4761 4.3774 23.7692 4.83486 23.9837 5.39067C24.1975 5.94648 24.3047 6.60761 24.3047 7.3747V8.0168H17.1351V6.63109H23.2794L22.3169 7.03779C22.3169 6.54226 22.2408 6.11018 22.0898 5.74217C21.9381 5.37417 21.7141 5.08612 21.4166 4.87737C21.119 4.66863 20.7485 4.56457 20.305 4.56457C19.8614 4.56457 19.4833 4.66926 19.1699 4.87737C18.8564 5.08612 18.6191 5.36656 18.4573 5.7187C18.2955 6.07084 18.215 6.46358 18.215 6.89694V7.85945C18.215 8.39178 18.3076 8.84734 18.4929 9.22549C18.6781 9.60365 18.9389 9.89234 19.2758 10.0903C19.6121 10.2889 20.0048 10.3879 20.4534 10.3879C20.7459 10.3879 21.013 10.346 21.256 10.2629C21.4984 10.1798 21.7072 10.0529 21.8823 9.88345C22.0568 9.71405 22.1913 9.50403 22.2852 9.25341L24.2108 9.48056C24.0858 9.98687 23.8543 10.4291 23.518 10.8073C23.1817 11.186 22.7509 11.4779 22.2262 11.6841C21.7021 11.8903 21.1006 11.9931 20.4217 11.9931L20.4204 11.9925Z" fill="#E8EFFC"/>
<path d="M27.7424 11.9998C27.1841 11.9998 26.6828 11.8995 26.2393 11.6984C25.7958 11.4972 25.4462 11.2016 25.1905 10.8101C24.9348 10.4186 24.8066 9.93641 24.8066 9.3622C24.8066 8.87174 24.898 8.46504 25.0807 8.14145C25.2635 7.81787 25.5128 7.55963 25.8282 7.36675C26.1441 7.17386 26.5001 7.02603 26.8966 6.92451C27.2932 6.82299 27.7031 6.7513 28.1256 6.70942C28.6421 6.65232 29.0596 6.60219 29.3781 6.56032C29.6966 6.51844 29.9269 6.45055 30.071 6.35665C30.2143 6.26274 30.286 6.11681 30.286 5.91822V5.87888C30.286 5.45631 30.1611 5.12765 29.9104 4.89289C29.6604 4.65813 29.2943 4.54075 28.8147 4.54075C28.3084 4.54075 27.908 4.65052 27.6136 4.86942C27.3186 5.08831 27.1187 5.34718 27.0146 5.64412L25.0966 5.37002C25.2482 4.83769 25.4982 4.39292 25.8478 4.0357C26.1974 3.67849 26.6238 3.40947 27.1276 3.22927C27.6307 3.04908 28.1884 2.95898 28.7988 2.95898C29.2163 2.95898 29.6338 3.00721 30.0513 3.10365C30.4688 3.20009 30.8526 3.36315 31.2016 3.59283C31.5512 3.82252 31.8304 4.13024 32.0391 4.51664C32.2479 4.90304 32.3526 5.38525 32.3526 5.96454V11.8196H30.3723V10.614H30.3095C30.1839 10.8539 30.0081 11.0797 29.781 11.291C29.5539 11.5023 29.2721 11.6736 28.9359 11.8037C28.5996 11.9338 28.2011 11.9991 27.7424 11.9991V11.9998ZM28.2671 10.4808C28.6846 10.4808 29.045 10.3989 29.3476 10.2346C29.6503 10.0703 29.8851 9.85075 30.0519 9.57729C30.2188 9.30319 30.3025 9.00435 30.3025 8.68076V7.65544C30.2347 7.70747 30.1249 7.75632 29.9739 7.8001C29.8222 7.84451 29.6503 7.88512 29.4574 7.92129C29.2639 7.95809 29.0748 7.98918 28.8895 8.01519C28.7043 8.0412 28.5438 8.06214 28.408 8.078C28.1002 8.11988 27.8249 8.18904 27.5825 8.28548C27.3401 8.38192 27.1479 8.5139 27.007 8.68076C26.8662 8.84763 26.7957 9.06463 26.7957 9.33048C26.7957 9.71117 26.9341 9.99859 27.2101 10.1915C27.4867 10.385 27.8388 10.4808 28.2665 10.4808H28.2671Z" fill="#E8EFFC"/>
<path d="M38.047 3.06871V4.6657H33.0295V3.06871H38.047ZM34.2585 0.986328H36.3174V9.18957C36.3174 9.5341 36.3929 9.78853 36.5446 9.95286C36.6962 10.1172 36.9361 10.1997 37.2647 10.1997C37.3529 10.1997 37.4525 10.1921 37.5623 10.1762C37.6721 10.1603 37.771 10.1426 37.8599 10.1216L38.212 11.7339C37.9925 11.8017 37.771 11.8525 37.5471 11.8868C37.3225 11.9204 37.0979 11.9375 36.8739 11.9375C36.0598 11.9375 35.4209 11.7224 34.9565 11.2916C34.492 10.8608 34.2598 10.2726 34.2598 9.52649V0.986328H34.2585Z" fill="#E8EFFC"/>
<path d="M41.3896 6.70054V11.8196H39.3313V3.06875H41.3509V4.5636H41.4524C41.6503 4.07314 41.9625 3.68293 42.3876 3.39361C42.8127 3.10428 43.3546 2.95898 44.0119 2.95898C44.6172 2.95898 45.1444 3.08652 45.593 3.34221C46.0416 3.59791 46.3899 3.97226 46.638 4.46525C46.8861 4.95824 47.0098 5.55466 47.0098 6.25386V11.8196H44.9509V6.57491C44.9509 5.99055 44.7993 5.53245 44.4966 5.20125C44.194 4.87005 43.7765 4.70445 43.2442 4.70445C42.8844 4.70445 42.564 4.78249 42.2855 4.93921C42.0063 5.09593 41.7874 5.32117 41.6281 5.6162C41.4689 5.91124 41.3896 6.27226 41.3896 6.70054Z" fill="#E8EFFC"/>
<path d="M52.2107 11.9925C51.3339 11.9925 50.5776 11.8085 49.9412 11.4405C49.3041 11.0725 48.815 10.5522 48.4736 9.87901C48.1316 9.20582 47.9609 8.41272 47.9609 7.4997C47.9609 6.58667 48.1303 5.80499 48.4698 5.12419C48.8086 4.44339 49.2864 3.91232 49.9025 3.531C50.5179 3.15031 51.2438 2.95996 52.0787 2.95996C52.6161 2.95996 53.1263 3.04625 53.6091 3.2182C54.092 3.39014 54.5196 3.65662 54.8933 4.01701C55.2664 4.3774 55.5595 4.83486 55.774 5.39067C55.9878 5.94648 56.095 6.60761 56.095 7.3747V8.0168H48.9254V6.63109H55.0697L54.1072 7.03779C54.1072 6.54226 54.031 6.11018 53.88 5.74217C53.7284 5.37417 53.5044 5.08612 53.2069 4.87737C52.9093 4.66863 52.5387 4.56457 52.0952 4.56457C51.6517 4.56457 51.2736 4.66926 50.9601 4.87737C50.6467 5.08612 50.4094 5.36656 50.2476 5.7187C50.0858 6.07084 50.0052 6.46358 50.0052 6.89694V7.85945C50.0052 8.39178 50.0979 8.84734 50.2832 9.22549C50.4684 9.60365 50.7292 9.89234 51.0661 10.0903C51.4024 10.2889 51.7951 10.3879 52.2437 10.3879C52.5362 10.3879 52.8033 10.346 53.0463 10.2629C53.2887 10.1798 53.4974 10.0529 53.6726 9.88345C53.847 9.71405 53.9816 9.50403 54.0755 9.25341L56.0011 9.48056C55.8761 9.98687 55.6445 10.4291 55.3083 10.8073C54.972 11.186 54.5412 11.4779 54.0165 11.6841C53.4924 11.8903 52.8909 11.9931 52.212 11.9931L52.2107 11.9925Z" fill="#E8EFFC"/>
<path d="M63.9161 5.39345L62.0457 5.58887C61.9676 5.30209 61.7982 5.04766 61.5368 4.82559C61.2761 4.60415 60.9081 4.49312 60.4328 4.49312C60.0052 4.49312 59.6467 4.58702 59.3567 4.77483C59.0668 4.96264 58.9221 5.20311 58.9221 5.49497C58.9221 5.75067 59.0173 5.96068 59.2076 6.12501C59.398 6.28934 59.7152 6.42132 60.1587 6.52029L61.6542 6.8331C62.4733 7.00504 63.0869 7.28739 63.4936 7.67823C63.9003 8.06907 64.104 8.57602 64.104 9.19655C64.104 9.74474 63.9447 10.2295 63.6262 10.6521C63.3077 11.0746 62.868 11.4033 62.3071 11.6387C61.7462 11.8734 61.1003 11.9908 60.37 11.9908C59.3003 11.9908 58.4405 11.7649 57.7908 11.3138C57.1411 10.8627 56.7509 10.2352 56.6208 9.43131L58.6328 9.2435C58.7216 9.63498 58.9158 9.93128 59.2159 10.1318C59.516 10.3329 59.9011 10.4332 60.3707 10.4332C60.8402 10.4332 61.2551 10.3329 61.5527 10.1318C61.8503 9.93065 61.9987 9.68447 61.9987 9.39197C61.9987 8.90151 61.6073 8.56778 60.8243 8.39012L59.3295 8.07668C58.4894 7.89395 57.8682 7.59828 57.4666 7.18841C57.065 6.77853 56.8639 6.25571 56.8639 5.61869C56.8639 5.07621 57.013 4.60669 57.3099 4.2095C57.6075 3.81295 58.0224 3.50523 58.5548 3.28569C59.0871 3.0668 59.7025 2.95703 60.4017 2.95703C61.4296 2.95703 62.2373 3.1772 62.8242 3.61816C63.4111 4.05913 63.7753 4.65047 63.9161 5.39091V5.39345Z" fill="#E8EFFC"/>
<path d="M69.3752 3.06871V4.6657H64.3577V3.06871H69.3752ZM65.5867 0.986328H67.6456V9.18957C67.6456 9.5341 67.7211 9.78853 67.8727 9.95286C68.0244 10.1172 68.2642 10.1997 68.5928 10.1997C68.681 10.1997 68.7807 10.1921 68.8904 10.1762C69.0002 10.1603 69.0992 10.1426 69.188 10.1216L69.5401 11.7339C69.3206 11.8017 69.0992 11.8525 68.8752 11.8868C68.6506 11.9204 68.426 11.9375 68.202 11.9375C67.388 11.9375 66.749 11.7224 66.2846 11.2916C65.8202 10.8608 65.5879 10.2726 65.5879 9.52649V0.986328H65.5867Z" fill="#E8EFFC"/>
<path d="M74.1057 11.9925C73.2289 11.9925 72.4726 11.8085 71.8362 11.4405C71.1992 11.0725 70.71 10.5522 70.3686 9.87901C70.0266 9.20582 69.856 8.41272 69.856 7.4997C69.856 6.58667 70.0254 5.80499 70.3648 5.12419C70.7036 4.44339 71.1814 3.91232 71.7975 3.531C72.4129 3.15031 73.1388 2.95996 73.9738 2.95996C74.5112 2.95996 75.0213 3.04625 75.5041 3.2182C75.987 3.39014 76.4146 3.65662 76.7883 4.01701C77.1614 4.3774 77.4545 4.83486 77.669 5.39067C77.8828 5.94648 77.99 6.60761 77.99 7.3747V8.0168H70.8204V6.63109H76.9647L76.0022 7.03779C76.0022 6.54226 75.9261 6.11018 75.7751 5.74217C75.6234 5.37417 75.3994 5.08612 75.1019 4.87737C74.8043 4.66863 74.4338 4.56457 73.9903 4.56457C73.5468 4.56457 73.1686 4.66926 72.8552 4.87737C72.5417 5.08612 72.3044 5.36656 72.1426 5.7187C71.9808 6.07084 71.9003 6.46358 71.9003 6.89694V7.85945C71.9003 8.39178 71.9929 8.84734 72.1782 9.22549C72.3634 9.60365 72.6242 9.89234 72.9611 10.0903C73.2974 10.2889 73.6901 10.3879 74.1387 10.3879C74.4312 10.3879 74.6983 10.346 74.9413 10.2629C75.1837 10.1798 75.3925 10.0529 75.5676 9.88345C75.7427 9.71405 75.8766 9.50403 75.9705 9.25341L77.8961 9.48056C77.7711 9.98687 77.5396 10.4291 77.2033 10.8073C76.867 11.186 76.4362 11.4779 75.9115 11.6841C75.3874 11.8903 74.7859 11.9931 74.107 11.9931L74.1057 11.9925Z" fill="#E8EFFC"/>
</svg>
