<svg width="447" height="60" viewBox="0 0 447 60" fill="none" xmlns="http://www.w3.org/2000/svg">
<g clip-path="url(#clip0_1570_4984)">
<path d="M41.1717 19.2181V40.7729H19.6169V59.5461H36.9369C49.6444 59.5461 59.948 49.2455 59.948 36.5351V19.2151H41.1748L41.1717 19.2181Z" fill="#1D5ADD"/>
<path d="M0.493408 23.4528V40.7728H19.617V19.2181H41.1718V0.444824H23.5045C10.794 0.444824 0.493408 10.7454 0.493408 23.4528Z" fill="#1D5ADD"/>
<path d="M99.0396 58.6934C94.1285 58.6934 89.7383 57.554 85.8661 55.2721C81.9938 52.9932 78.9502 49.709 76.7323 45.4254C74.5144 41.1419 73.4084 35.9901 73.4084 29.9791C73.4084 23.9681 74.5296 18.7736 76.7719 14.4749C79.0142 10.1791 82.073 6.88881 85.9422 4.60689C89.8145 2.32803 94.1803 1.18555 99.0396 1.18555C102.123 1.18555 105.011 1.62426 107.704 2.50168C110.397 3.37911 112.798 4.66173 114.9 6.35565C117.005 8.04652 118.727 10.1152 120.07 12.5586C121.411 15.0019 122.294 17.7774 122.721 20.8849H112.496C112.219 19.1819 111.689 17.6769 110.9 16.376C110.111 15.072 109.133 13.963 107.969 13.0491C106.805 12.1351 105.48 11.4465 104.003 10.9835C102.522 10.5204 100.932 10.2888 99.2285 10.2888C96.1697 10.2888 93.4643 11.0474 91.1093 12.5616C88.7542 14.0788 86.911 16.3089 85.5827 19.252C84.2544 22.195 83.5933 25.7717 83.5933 29.9821C83.5933 34.1926 84.2635 37.8302 85.604 40.7489C86.9445 43.6675 88.7847 45.8733 91.1275 47.3631C93.4704 48.8559 96.1575 49.5993 99.1889 49.5993C100.868 49.5993 102.434 49.3799 103.887 48.9412C105.34 48.5025 106.662 47.8383 107.85 46.9487C109.039 46.0591 110.032 44.9837 110.821 43.7163C111.61 42.4519 112.167 40.9926 112.493 39.3383H122.718C122.343 42.0193 121.521 44.5328 120.256 46.8756C118.992 49.2184 117.338 51.2719 115.293 53.0389C113.252 54.8059 110.864 56.1891 108.134 57.1914C105.401 58.1938 102.37 58.6965 99.0366 58.6965L99.0396 58.6934Z" fill="#1D5ADD"/>
<path d="M127.845 57.9408V15.9219H137.43V22.987H137.881C138.634 20.5314 139.95 18.6456 141.826 17.3294C143.706 16.0133 145.848 15.3552 148.255 15.3552C148.782 15.3552 149.388 15.3796 150.077 15.4314C150.765 15.4832 151.335 15.5441 151.789 15.6203V24.7175C151.362 24.5682 150.698 24.4433 149.796 24.3427C148.895 24.2422 148.029 24.1934 147.204 24.1934C145.373 24.1934 143.746 24.5834 142.317 25.3573C140.888 26.1341 139.767 27.2005 138.953 28.5532C138.14 29.9058 137.732 31.484 137.732 33.2876V57.9438H127.849L127.845 57.9408Z" fill="#1D5ADD"/>
<path d="M171.461 58.7695C167.25 58.7695 163.619 57.886 160.563 56.119C157.504 54.3519 155.155 51.8537 153.516 48.6213C151.874 45.3888 151.054 41.5805 151.054 37.1965C151.054 32.8124 151.868 29.059 153.498 25.7899C155.125 22.5209 157.419 19.9709 160.377 18.1399C163.332 16.3119 166.818 15.3979 170.827 15.3979C173.407 15.3979 175.857 15.8123 178.175 16.6379C180.494 17.4636 182.547 18.7431 184.342 20.4736C186.133 22.2041 187.541 24.4007 188.57 27.0695C189.597 29.7384 190.112 32.9129 190.112 36.5963V39.6795H155.685V33.0257H185.189L180.567 34.9785C180.567 32.5991 180.201 30.5244 179.476 28.7573C178.748 26.9903 177.673 25.6071 176.244 24.6048C174.815 23.6025 173.036 23.1028 170.906 23.1028C168.777 23.1028 166.961 23.6055 165.456 24.6048C163.951 25.6071 162.811 26.9538 162.034 28.6446C161.258 30.3355 160.871 32.2213 160.871 34.3022V38.9239C160.871 41.48 161.315 43.6675 162.205 45.4833C163.095 47.299 164.347 48.6852 165.965 49.6358C167.579 50.5894 169.465 51.0646 171.619 51.0646C173.024 51.0646 174.306 50.8636 175.473 50.4645C176.637 50.0654 177.639 49.456 178.48 48.6426C179.318 47.8291 179.964 46.8207 180.415 45.6173L189.661 46.708C189.061 49.1392 187.949 51.2627 186.334 53.0785C184.72 54.8973 182.651 56.2987 180.131 57.2889C177.615 58.279 174.727 58.7726 171.467 58.7726L171.461 58.7695Z" fill="#1D5ADD"/>
<path d="M206.619 58.8057C203.938 58.8057 201.531 58.3244 199.401 57.3586C197.272 56.3928 195.593 54.9731 194.365 53.0933C193.137 51.2136 192.522 48.8981 192.522 46.141C192.522 43.7859 192.961 41.833 193.838 40.2793C194.716 38.7255 195.913 37.4855 197.427 36.5594C198.944 35.6332 200.653 34.9233 202.558 34.4359C204.462 33.9484 206.43 33.6041 208.459 33.4031C210.939 33.1289 212.943 32.8882 214.473 32.6871C216.002 32.486 217.108 32.16 217.8 31.7091C218.488 31.2582 218.833 30.5575 218.833 29.6039V29.415C218.833 27.386 218.232 25.8079 217.029 24.6806C215.829 23.5534 214.071 22.9897 211.767 22.9897C209.336 22.9897 207.414 23.5168 206 24.5679C204.584 25.619 203.624 26.862 203.124 28.2878L193.914 26.9717C194.642 24.4156 195.843 22.2799 197.521 20.5646C199.2 18.8494 201.247 17.5576 203.666 16.6924C206.082 15.8272 208.76 15.3945 211.691 15.3945C213.696 15.3945 215.701 15.6261 217.705 16.0892C219.71 16.5522 221.553 17.3352 223.229 18.4381C224.907 19.541 226.248 21.0186 227.25 22.874C228.253 24.7294 228.755 27.0448 228.755 29.8263V57.9405H219.247V52.1519H218.945C218.342 53.3035 217.498 54.3881 216.407 55.4027C215.317 56.4172 213.964 57.2398 212.349 57.8643C210.735 58.4889 208.821 58.8027 206.619 58.8027V58.8057ZM209.138 51.5121C211.143 51.5121 212.873 51.1191 214.327 50.33C215.78 49.541 216.907 48.4868 217.708 47.1738C218.51 45.8576 218.912 44.4227 218.912 42.8689V37.9456C218.586 38.1954 218.059 38.43 217.334 38.6402C216.605 38.8535 215.78 39.0484 214.854 39.2221C213.924 39.3988 213.017 39.5481 212.127 39.673C211.237 39.7979 210.467 39.8984 209.815 39.9746C208.337 40.1757 207.015 40.5078 205.851 40.9708C204.687 41.4339 203.764 42.0676 203.088 42.8689C202.411 43.6702 202.073 44.7121 202.073 45.9886C202.073 47.8166 202.737 49.1967 204.063 50.1229C205.391 51.0521 207.082 51.5121 209.135 51.5121H209.138Z" fill="#1D5ADD"/>
<path d="M256.099 15.9218V23.5902H232.006V15.9218H256.099ZM237.907 5.92285H247.794V45.3125C247.794 46.9668 248.156 48.1885 248.884 48.9776C249.612 49.7667 250.764 50.1627 252.342 50.1627C252.766 50.1627 253.244 50.1262 253.771 50.05C254.298 49.9738 254.773 49.8885 255.2 49.788L256.891 57.5294C255.837 57.8554 254.773 58.0991 253.698 58.2637C252.619 58.4251 251.541 58.5074 250.466 58.5074C246.557 58.5074 243.489 57.4746 241.259 55.4059C239.029 53.3373 237.913 50.5131 237.913 46.9303V5.92285H237.907Z" fill="#1D5ADD"/>
<path d="M272.147 33.3604V57.9405H262.264V15.9216H271.962V23.0994H272.449C273.4 20.7444 274.898 18.8707 276.94 17.4815C278.981 16.0922 281.583 15.3945 284.739 15.3945C287.645 15.3945 290.177 16.0069 292.331 17.2347C294.485 18.4625 296.158 20.26 297.349 22.6272C298.54 24.9944 299.134 27.8582 299.134 31.2156V57.9405H289.248V32.7572C289.248 29.9512 288.52 27.7516 287.067 26.1613C285.613 24.5709 283.609 23.7758 281.053 23.7758C279.325 23.7758 277.787 24.1505 276.449 24.903C275.109 25.6555 274.058 26.7371 273.293 28.1537C272.528 29.5704 272.147 31.3039 272.147 33.3604Z" fill="#1D5ADD"/>
<path d="M324.108 58.7695C319.898 58.7695 316.266 57.886 313.211 56.119C310.152 54.3519 307.803 51.8537 306.164 48.6213C304.522 45.3888 303.702 41.5805 303.702 37.1965C303.702 32.8124 304.516 29.059 306.146 25.7899C307.772 22.5209 310.067 19.9709 313.025 18.1399C315.98 16.3119 319.465 15.3979 323.475 15.3979C326.055 15.3979 328.505 15.8123 330.823 16.6379C333.142 17.4636 335.195 18.7431 336.989 20.4736C338.781 22.2041 340.188 24.4007 341.218 27.0695C342.245 29.7384 342.76 32.9129 342.76 36.5963V39.6795H308.333V33.0257H337.836L333.215 34.9785C333.215 32.5991 332.849 30.5244 332.124 28.7573C331.396 26.9903 330.32 25.6071 328.892 24.6048C327.463 23.6025 325.683 23.1028 323.554 23.1028C321.424 23.1028 319.609 23.6055 318.103 24.6048C316.598 25.6071 315.459 26.9538 314.682 28.6446C313.905 30.3355 313.518 32.2213 313.518 34.3022V38.9239C313.518 41.48 313.963 43.6675 314.853 45.4833C315.742 47.299 316.995 48.6852 318.612 49.6358C320.227 50.5894 322.113 51.0646 324.267 51.0646C325.671 51.0646 326.954 50.8636 328.121 50.4645C329.285 50.0654 330.287 49.456 331.128 48.6426C331.966 47.8291 332.611 46.8207 333.062 45.6173L342.309 46.708C341.709 49.1392 340.597 51.2627 338.982 53.0785C337.367 54.8973 335.299 56.2987 332.779 57.2889C330.263 58.279 327.374 58.7726 324.114 58.7726L324.108 58.7695Z" fill="#1D5ADD"/>
<path d="M380.315 27.0847L371.334 28.0231C370.959 26.646 370.146 25.4243 368.891 24.358C367.638 23.2947 365.871 22.7616 363.589 22.7616C361.536 22.7616 359.815 23.2125 358.422 24.1143C357.03 25.0161 356.335 26.1708 356.335 27.5722C356.335 28.8 356.792 29.8084 357.706 30.5975C358.62 31.3866 360.144 32.0203 362.273 32.4955L369.454 33.9975C373.387 34.8231 376.333 36.1789 378.286 38.0556C380.239 39.9323 381.217 42.3665 381.217 45.3461C381.217 47.9784 380.452 50.306 378.923 52.3351C377.394 54.3641 375.282 55.9423 372.589 57.0725C369.896 58.1998 366.794 58.7634 363.288 58.7634C358.151 58.7634 354.023 57.6788 350.903 55.5127C347.784 53.3465 345.91 50.3334 345.285 46.4734L354.946 45.5716C355.373 47.4513 356.305 48.8741 357.746 49.8368C359.187 50.8026 361.036 51.284 363.291 51.284C365.545 51.284 367.538 50.8026 368.967 49.8368C370.396 48.8711 371.108 47.689 371.108 46.2845C371.108 43.9295 369.229 42.3269 365.469 41.4739L358.291 39.9689C354.258 39.0914 351.275 37.6717 349.347 35.7036C347.418 33.7355 346.452 31.2251 346.452 28.1663C346.452 25.5614 347.168 23.3069 348.594 21.3998C350.023 19.4956 352.015 18.018 354.571 16.9639C357.128 15.9128 360.083 15.3857 363.44 15.3857C368.376 15.3857 372.254 16.4429 375.072 18.5603C377.89 20.6777 379.639 23.5172 380.315 27.0725V27.0847Z" fill="#1D5ADD"/>
<path d="M406.528 15.9218V23.5902H382.435V15.9218H406.528ZM388.337 5.92285H398.223V45.3125C398.223 46.9668 398.585 48.1885 399.314 48.9776C400.042 49.7667 401.193 50.1627 402.771 50.1627C403.195 50.1627 403.673 50.1262 404.2 50.05C404.727 49.9738 405.203 49.8885 405.629 49.788L407.32 57.5294C406.266 57.8554 405.203 58.0991 404.127 58.2637C403.049 58.4251 401.97 58.5074 400.895 58.5074C396.986 58.5074 393.918 57.4746 391.688 55.4059C389.458 53.3373 388.343 50.5131 388.343 46.9303V5.92285H388.337Z" fill="#1D5ADD"/>
<path d="M429.244 58.7695C425.033 58.7695 421.402 57.886 418.346 56.119C415.287 54.3519 412.938 51.8537 411.299 48.6213C409.657 45.3888 408.838 41.5805 408.838 37.1965C408.838 32.8124 409.651 29.059 411.281 25.7899C412.908 22.5209 415.202 19.9709 418.16 18.1399C421.115 16.3119 424.601 15.3979 428.61 15.3979C431.191 15.3979 433.64 15.8123 435.959 16.6379C438.277 17.4636 440.33 18.7431 442.125 20.4736C443.916 22.2041 445.324 24.4007 446.354 27.0695C447.38 29.7384 447.895 32.9129 447.895 36.5963V39.6795H413.468V33.0257H442.972L438.35 34.9785C438.35 32.5991 437.985 30.5244 437.26 28.7573C436.531 26.9903 435.456 25.6071 434.027 24.6048C432.598 23.6025 430.819 23.1028 428.689 23.1028C426.56 23.1028 424.744 23.6055 423.239 24.6048C421.734 25.6071 420.595 26.9538 419.818 28.6446C419.041 30.3355 418.654 32.2213 418.654 34.3022V38.9239C418.654 41.48 419.099 43.6675 419.988 45.4833C420.878 47.299 422.13 48.6852 423.748 49.6358C425.362 50.5894 427.248 51.0646 429.402 51.0646C430.807 51.0646 432.089 50.8636 433.256 50.4645C434.42 50.0654 435.422 49.456 436.263 48.6426C437.104 47.8291 437.747 46.8207 438.198 45.6173L447.444 46.708C446.844 49.1392 445.732 51.2627 444.117 53.0785C442.503 54.8973 440.434 56.2987 437.915 57.2889C435.398 58.279 432.51 58.7726 429.25 58.7726L429.244 58.7695Z" fill="#1D5ADD"/>
</g>
<defs>
<clipPath id="clip0_1570_4984">
<rect width="446.71" height="60" fill="white"/>
</clipPath>
</defs>
</svg>
