<svg width="179" height="25" viewBox="0 0 179 25" fill="none" xmlns="http://www.w3.org/2000/svg">
<g clip-path="url(#clip0_1810_1344)">
<path d="M39.0159 23.8141C37.0514 23.8141 35.2954 23.3583 33.7465 22.4455C32.1976 21.534 30.9801 20.2203 30.093 18.5069C29.2058 16.7934 28.7634 14.7327 28.7634 12.3283C28.7634 9.92394 29.2119 7.84615 30.1088 6.12664C31.0057 4.40835 32.2293 3.09222 33.7769 2.17945C35.3258 1.2679 37.0722 0.810913 39.0159 0.810913C40.2492 0.810913 41.4044 0.986398 42.4817 1.33737C43.559 1.68834 44.5193 2.20139 45.3602 2.87895C46.2022 3.5553 46.8908 4.38276 47.4282 5.36012C47.9644 6.33747 48.3178 7.44766 48.4884 8.69067H44.3986C44.2877 8.00945 44.0757 7.40744 43.7601 6.88708C43.4444 6.3655 43.0533 5.92191 42.5877 5.55632C42.1222 5.19072 41.5921 4.91531 41.0011 4.73008C40.4088 4.54484 39.7727 4.45222 39.0914 4.45222C37.8679 4.45222 36.7858 4.75567 35.8438 5.36133C34.9017 5.96822 34.1645 6.86027 33.6331 8.03748C33.1018 9.21469 32.8374 10.6454 32.8374 12.3295C32.8374 14.0137 33.1055 15.4688 33.6417 16.6362C34.1779 17.8037 34.9139 18.686 35.8511 19.2819C36.7882 19.8791 37.8631 20.1764 39.0756 20.1764C39.7471 20.1764 40.3735 20.0887 40.9548 19.9132C41.536 19.7377 42.0649 19.472 42.5402 19.1162C43.0155 18.7603 43.4128 18.3302 43.7284 17.8232C44.044 17.3175 44.267 16.7337 44.3974 16.072H48.4872C48.3373 17.1444 48.0083 18.1498 47.5025 19.0869C46.9968 20.0241 46.3351 20.8454 45.5174 21.5523C44.7009 22.2591 43.7455 22.8123 42.6535 23.2133C41.5604 23.6142 40.3479 23.8153 39.0147 23.8153L39.0159 23.8141Z" fill="#F0F0F0"/>
<path d="M50.5381 23.513V6.70543H54.3719V9.53147H54.5523C54.8533 8.54924 55.3798 7.7949 56.1305 7.26844C56.8824 6.74199 57.7391 6.47876 58.7018 6.47876C58.9126 6.47876 59.1551 6.48851 59.4305 6.50923C59.706 6.52994 59.9338 6.55432 60.1154 6.58478V10.2237C59.9448 10.1639 59.6791 10.114 59.3184 10.0738C58.9577 10.0335 58.6116 10.014 58.2814 10.014C57.549 10.014 56.8982 10.17 56.3267 10.4796C55.7551 10.7903 55.3066 11.2169 54.9813 11.7579C54.6559 12.299 54.4926 12.9303 54.4926 13.6517V23.5142H50.5393L50.5381 23.513Z" fill="#F0F0F0"/>
<path d="M67.9842 23.8444C66.3 23.8444 64.8474 23.491 63.6251 22.7841C62.4016 22.0773 61.462 21.078 60.8063 19.7851C60.1495 18.4921 59.8217 16.9688 59.8217 15.2151C59.8217 13.4615 60.1471 11.9601 60.799 10.6525C61.4498 9.34492 62.3674 8.32491 63.5507 7.59251C64.7328 6.86132 66.127 6.49573 67.7307 6.49573C68.7629 6.49573 69.7427 6.66146 70.6701 6.99172C71.5975 7.32197 72.4188 7.8338 73.1366 8.52599C73.8532 9.21818 74.4162 10.0968 74.8281 11.1644C75.2388 12.2319 75.4447 13.5017 75.4447 14.9751V16.2083H61.674V13.5468H73.4754L71.6267 14.328C71.6267 13.3762 71.4805 12.5463 71.1904 11.8395C70.8992 11.1327 70.469 10.5794 69.8974 10.1785C69.3259 9.77754 68.6142 9.57768 67.7624 9.57768C66.9105 9.57768 66.1842 9.77876 65.5822 10.1785C64.9802 10.5794 64.5244 11.118 64.2137 11.7944C63.9029 12.4707 63.7482 13.2251 63.7482 14.0574V15.9061C63.7482 16.9285 63.9261 17.8035 64.2819 18.5298C64.6378 19.2562 65.1386 19.8106 65.7857 20.1909C66.4316 20.5723 67.186 20.7624 68.0475 20.7624C68.6093 20.7624 69.1224 20.682 69.5891 20.5223C70.0546 20.3627 70.4556 20.119 70.7919 19.7936C71.1271 19.4682 71.3854 19.0648 71.5658 18.5835L75.2644 19.0197C75.0243 19.9922 74.5795 20.8416 73.9336 21.5679C73.2877 22.2955 72.4603 22.856 71.4524 23.2521C70.4458 23.6482 69.2906 23.8456 67.9866 23.8456L67.9842 23.8444Z" fill="#F0F0F0"/>
<path d="M82.0474 23.859C80.975 23.859 80.0122 23.6664 79.1604 23.2801C78.3086 22.8938 77.6371 22.3259 77.146 21.574C76.6549 20.8221 76.4087 19.8959 76.4087 18.7931C76.4087 17.8511 76.5842 17.0699 76.9351 16.4484C77.2861 15.8269 77.765 15.3309 78.3707 14.9604C78.9776 14.59 79.6613 14.306 80.4229 14.111C81.1846 13.9161 81.9718 13.7783 82.7834 13.6979C83.7754 13.5882 84.5773 13.492 85.189 13.4115C85.8008 13.3311 86.2432 13.2007 86.5198 13.0204C86.7952 12.84 86.9329 12.5597 86.9329 12.1783V12.1027C86.9329 11.2911 86.6928 10.6598 86.2115 10.2089C85.7313 9.75804 85.0282 9.53259 84.1069 9.53259C83.1344 9.53259 82.3654 9.74342 81.8 10.1638C81.2333 10.5843 80.8494 11.0815 80.6496 11.6518L76.9656 11.1254C77.2569 10.1029 77.737 9.24865 78.4085 8.56255C79.08 7.87645 79.8989 7.35975 80.8665 7.01365C81.8329 6.66755 82.9041 6.49451 84.0764 6.49451C84.8783 6.49451 85.6801 6.58712 86.482 6.77236C87.2839 6.95759 88.0212 7.27078 88.6914 7.71193C89.3629 8.15308 89.8991 8.74413 90.3 9.48628C90.701 10.2284 90.902 11.1546 90.902 12.2672V23.5129H87.0986V21.1975H86.978C86.7367 21.6581 86.3991 22.0919 85.9629 22.4978C85.5266 22.9036 84.9855 23.2326 84.3396 23.4824C83.6938 23.7322 82.9284 23.8578 82.0474 23.8578V23.859ZM83.0552 20.9415C83.857 20.9415 84.5492 20.7843 85.1305 20.4687C85.7118 20.1531 86.1627 19.7314 86.4832 19.2062C86.8037 18.6797 86.9646 18.1058 86.9646 17.4843V15.5149C86.8342 15.6148 86.6234 15.7087 86.3333 15.7928C86.0421 15.8781 85.7118 15.9561 85.3414 16.0255C84.9697 16.0962 84.6065 16.1559 84.2507 16.2059C83.8948 16.2559 83.5865 16.2961 83.3257 16.3265C82.7347 16.407 82.2058 16.5398 81.7403 16.725C81.2747 16.9103 80.9055 17.1637 80.635 17.4843C80.3644 17.8048 80.2291 18.2215 80.2291 18.7321C80.2291 19.4633 80.4948 20.0154 81.0249 20.3858C81.5562 20.7575 82.2326 20.9415 83.054 20.9415H83.0552Z" fill="#F0F0F0"/>
<path d="M101.839 6.70528V9.77261H92.2024V6.70528H101.839ZM94.5629 2.70569H98.5174V18.4616C98.5174 19.1233 98.6624 19.612 98.9537 19.9276C99.2449 20.2432 99.7056 20.4016 100.337 20.4016C100.506 20.4016 100.698 20.387 100.908 20.3565C101.119 20.3261 101.309 20.292 101.48 20.2517L102.156 23.3483C101.735 23.4787 101.309 23.5762 100.879 23.642C100.448 23.7066 100.016 23.7395 99.5861 23.7395C98.0226 23.7395 96.7954 23.3264 95.9034 22.4989C95.0113 21.6715 94.5653 20.5418 94.5653 19.1087V2.70569H94.5629Z" fill="#F0F0F0"/>
<path d="M108.259 13.6809V23.5129H104.306V6.70533H108.185V9.57646H108.38C108.76 8.63445 109.36 7.88498 110.176 7.32928C110.992 6.77358 112.033 6.49451 113.296 6.49451C114.458 6.49451 115.471 6.73945 116.333 7.23057C117.194 7.72168 117.863 8.44068 118.34 9.38757C118.816 10.3345 119.054 11.48 119.054 12.8229V23.5129H115.099V13.4396C115.099 12.3172 114.808 11.4373 114.227 10.8012C113.645 10.1651 112.844 9.847 111.821 9.847C111.13 9.847 110.515 9.99689 109.98 10.2979C109.444 10.5989 109.023 11.0315 108.717 11.5982C108.411 12.1649 108.259 12.8583 108.259 13.6809Z" fill="#F0F0F0"/>
<path d="M129.043 23.8444C127.359 23.8444 125.906 23.491 124.684 22.7841C123.461 22.0773 122.521 21.078 121.865 19.7851C121.209 18.4921 120.881 16.9688 120.881 15.2151C120.881 13.4615 121.206 11.9601 121.858 10.6525C122.509 9.34492 123.427 8.32491 124.61 7.59251C125.792 6.86132 127.186 6.49573 128.79 6.49573C129.822 6.49573 130.802 6.66146 131.729 6.99172C132.657 7.32197 133.478 7.8338 134.196 8.52599C134.912 9.21818 135.475 10.0968 135.887 11.1644C136.298 12.2319 136.504 13.5017 136.504 14.9751V16.2083H122.733V13.5468H134.534L132.686 14.328C132.686 13.3762 132.54 12.5463 132.25 11.8395C131.958 11.1327 131.528 10.5794 130.957 10.1785C130.385 9.77754 129.673 9.57768 128.821 9.57768C127.97 9.57768 127.243 9.77876 126.641 10.1785C126.039 10.5794 125.584 11.118 125.273 11.7944C124.962 12.4707 124.807 13.2251 124.807 14.0574V15.9061C124.807 16.9285 124.985 17.8035 125.341 18.5298C125.697 19.2562 126.198 19.8106 126.845 20.1909C127.491 20.5723 128.245 20.7624 129.107 20.7624C129.668 20.7624 130.181 20.682 130.648 20.5223C131.114 20.3627 131.515 20.119 131.851 19.7936C132.186 19.4682 132.444 19.0648 132.625 18.5835L136.323 19.0197C136.083 19.9922 135.639 20.8416 134.993 21.5679C134.347 22.2955 133.519 22.856 132.512 23.2521C131.505 23.6482 130.35 23.8456 129.046 23.8456L129.043 23.8444Z" fill="#F0F0F0"/>
<path d="M151.526 11.1704L147.933 11.5458C147.784 10.995 147.458 10.5063 146.956 10.0798C146.455 9.65445 145.748 9.44118 144.836 9.44118C144.014 9.44118 143.326 9.62154 142.769 9.98226C142.212 10.343 141.934 10.8048 141.934 11.3654C141.934 11.8565 142.117 12.2599 142.482 12.5755C142.848 12.8912 143.457 13.1446 144.309 13.3348L147.182 13.9355C148.755 14.2658 149.933 14.8081 150.714 15.5588C151.496 16.3095 151.887 17.2832 151.887 18.475C151.887 19.5279 151.581 20.459 150.969 21.2706C150.357 22.0822 149.513 22.7135 148.436 23.1656C147.358 23.6165 146.118 23.8419 144.715 23.8419C142.66 23.8419 141.009 23.4081 139.761 22.5416C138.513 21.6752 137.764 20.4699 137.514 18.9259L141.378 18.5652C141.549 19.3171 141.922 19.8862 142.498 20.2713C143.075 20.6576 143.814 20.8501 144.716 20.8501C145.618 20.8501 146.415 20.6576 146.987 20.2713C147.558 19.885 147.843 19.4121 147.843 18.8503C147.843 17.9083 147.091 17.2673 145.588 16.9261L142.716 16.3241C141.103 15.9731 139.91 15.4052 139.139 14.618C138.367 13.8307 137.981 12.8266 137.981 11.6031C137.981 10.5611 138.267 9.65932 138.838 8.89645C139.409 8.1348 140.206 7.54375 141.228 7.1221C142.251 6.70167 143.433 6.49084 144.776 6.49084C146.75 6.49084 148.302 6.91371 149.429 7.76067C150.556 8.60763 151.256 9.74341 151.526 11.1656V11.1704Z" fill="#F0F0F0"/>
<path d="M162.011 6.70528V9.77261H152.374V6.70528H162.011ZM154.735 2.70569H158.689V18.4616C158.689 19.1233 158.834 19.612 159.125 19.9276C159.417 20.2432 159.877 20.4016 160.508 20.4016C160.678 20.4016 160.869 20.387 161.08 20.3565C161.291 20.3261 161.481 20.292 161.652 20.2517L162.328 23.3483C161.906 23.4787 161.481 23.5762 161.051 23.642C160.619 23.7066 160.188 23.7395 159.758 23.7395C158.194 23.7395 156.967 23.3264 156.075 22.4989C155.183 21.6715 154.737 20.5418 154.737 19.1087V2.70569H154.735Z" fill="#F0F0F0"/>
<path d="M171.097 23.8444C169.413 23.8444 167.961 23.491 166.738 22.7841C165.515 22.0773 164.575 21.078 163.92 19.7851C163.263 18.4921 162.935 16.9688 162.935 15.2151C162.935 13.4615 163.26 11.9601 163.912 10.6525C164.563 9.34492 165.481 8.32491 166.664 7.59251C167.846 6.86132 169.24 6.49573 170.844 6.49573C171.876 6.49573 172.856 6.66146 173.783 6.99172C174.711 7.32197 175.532 7.8338 176.25 8.52599C176.966 9.21818 177.529 10.0968 177.941 11.1644C178.352 12.2319 178.558 13.5017 178.558 14.9751V16.2083H164.787V13.5468H176.589L174.74 14.328C174.74 13.3762 174.594 12.5463 174.304 11.8395C174.012 11.1327 173.582 10.5794 173.011 10.1785C172.439 9.77754 171.727 9.57768 170.876 9.57768C170.024 9.57768 169.298 9.77876 168.696 10.1785C168.093 10.5794 167.638 11.118 167.327 11.7944C167.016 12.4707 166.861 13.2251 166.861 14.0574V15.9061C166.861 16.9285 167.039 17.8035 167.395 18.5298C167.751 19.2562 168.252 19.8106 168.899 20.1909C169.545 20.5723 170.299 20.7624 171.161 20.7624C171.723 20.7624 172.236 20.682 172.702 20.5223C173.168 20.3627 173.569 20.119 173.905 19.7936C174.242 19.4682 174.499 19.0648 174.679 18.5835L178.378 19.0197C178.138 19.9922 177.693 20.8416 177.047 21.5679C176.401 22.2955 175.574 22.856 174.566 23.2521C173.559 23.6482 172.404 23.8456 171.1 23.8456L171.097 23.8444Z" fill="#F0F0F0"/>
<path d="M16.4685 8.02417V16.6461H7.84662V24.1554H14.7746C19.8576 24.1554 23.979 20.0351 23.979 14.9509V8.02295H16.4698L16.4685 8.02417Z" fill="#F0F0F0"/>
<path d="M0.197235 9.7181V16.6461H7.84667V8.02419H16.4686V0.514893H9.40166C4.31747 0.514893 0.197235 4.63513 0.197235 9.7181Z" fill="#F0F0F0"/>
</g>
<defs>
<clipPath id="clip0_1810_1344">
<rect width="178.684" height="24" fill="white" transform="translate(0 0.336914)"/>
</clipPath>
</defs>
</svg>
