<svg width="104" height="16" viewBox="0 0 104 16" fill="none" xmlns="http://www.w3.org/2000/svg">
<path d="M7.11722 15.9687C5.7535 15.9687 4.53445 15.6523 3.45921 15.0187C2.38397 14.3859 1.53884 13.4739 0.922963 12.2845C0.307091 11.095 0 9.66446 0 7.99535C0 6.32623 0.311321 4.88384 0.933962 3.69016C1.5566 2.49733 2.40597 1.58367 3.48036 0.950034C4.5556 0.317242 5.76789 0 7.11722 0C7.97335 0 8.77534 0.121821 9.52319 0.365463C10.271 0.609105 10.9377 0.965262 11.5214 1.43563C12.106 1.90514 12.5839 2.47956 12.957 3.15804C13.3292 3.83651 13.5746 4.6072 13.693 5.4701H10.8539C10.7769 4.9972 10.6297 4.57928 10.4106 4.21805C10.1915 3.85597 9.91995 3.54804 9.59679 3.29424C9.27362 3.04045 8.90562 2.84926 8.49532 2.72067C8.08418 2.59208 7.64257 2.52779 7.16967 2.52779C6.32031 2.52779 5.56908 2.73843 4.91514 3.15889C4.2612 3.58018 3.74938 4.19944 3.38053 5.01666C3.01168 5.83387 2.82811 6.82705 2.82811 7.99619C2.82811 9.16534 3.01422 10.1754 3.38645 10.9859C3.75868 11.7963 4.26966 12.4088 4.92021 12.8225C5.57077 13.237 6.31692 13.4435 7.15867 13.4435C7.62481 13.4435 8.05964 13.3825 8.46317 13.2607C8.86671 13.1389 9.23386 12.9545 9.56379 12.7075C9.89372 12.4604 10.1695 12.1618 10.3886 11.8099C10.6077 11.4588 10.7625 11.0536 10.8531 10.5942H13.6922C13.5881 11.3387 13.3597 12.0366 13.0086 12.6871C12.6575 13.3377 12.1982 13.9079 11.6305 14.3986C11.0637 14.8892 10.4005 15.2733 9.64247 15.5516C8.88363 15.83 8.04188 15.9695 7.11637 15.9695L7.11722 15.9687Z" fill="#1D5ADD"/>
<path d="M15.1165 15.7597V4.09192H17.7779V6.05375H17.9031C18.1121 5.37189 18.4775 4.84823 18.9987 4.48276C19.5206 4.1173 20.1153 3.93457 20.7837 3.93457C20.93 3.93457 21.0984 3.94134 21.2896 3.95572C21.4808 3.9701 21.639 3.98702 21.765 4.00817V6.53426C21.6466 6.49281 21.4621 6.45813 21.2117 6.43021C20.9613 6.40229 20.7211 6.38876 20.4918 6.38876C19.9834 6.38876 19.5316 6.49704 19.1349 6.71192C18.7381 6.92764 18.4268 7.22374 18.2009 7.59935C17.975 7.97497 17.8617 8.41318 17.8617 8.914V15.7605H15.1173L15.1165 15.7597Z" fill="#1D5ADD"/>
<path d="M27.2272 15.9899C26.058 15.9899 25.0496 15.7446 24.2011 15.2539C23.3517 14.7632 22.6995 14.0695 22.2443 13.1719C21.7884 12.2744 21.5608 11.2169 21.5608 9.99951C21.5608 8.78215 21.7867 7.7399 22.2393 6.83217C22.691 5.92443 23.328 5.21635 24.1495 4.70791C24.9701 4.20033 25.9379 3.94653 27.0512 3.94653C27.7677 3.94653 28.4479 4.06159 29.0917 4.29085C29.7355 4.52011 30.3057 4.87542 30.804 5.35593C31.3014 5.83645 31.6922 6.4464 31.9782 7.18748C32.2633 7.92856 32.4062 8.81007 32.4062 9.83286V10.689H22.8467V8.84137H31.0391L29.7558 9.38364C29.7558 8.72293 29.6543 8.14682 29.4529 7.65615C29.2507 7.16548 28.9521 6.78141 28.5553 6.50308C28.1586 6.22475 27.6645 6.08601 27.0732 6.08601C26.4818 6.08601 25.9776 6.2256 25.5597 6.50308C25.1418 6.78141 24.8254 7.15533 24.6097 7.62485C24.394 8.09437 24.2865 8.61803 24.2865 9.19583V10.4792C24.2865 11.189 24.41 11.7964 24.6571 12.3006C24.9041 12.8048 25.2518 13.1897 25.701 13.4536C26.1494 13.7184 26.673 13.8504 27.2711 13.8504C27.6611 13.8504 28.0173 13.7946 28.3413 13.6838C28.6645 13.5729 28.9428 13.4037 29.1763 13.1779C29.4089 12.952 29.5883 12.672 29.7135 12.3378L32.281 12.6407C32.1144 13.3158 31.8056 13.9054 31.3572 14.4096C30.9089 14.9147 30.3344 15.3038 29.6348 15.5787C28.936 15.8537 28.134 15.9907 27.2288 15.9907L27.2272 15.9899Z" fill="#1D5ADD"/>
<path d="M36.9898 15.9999C36.2453 15.9999 35.577 15.8662 34.9857 15.5981C34.3943 15.3299 33.9282 14.9357 33.5873 14.4137C33.2463 13.8917 33.0754 13.2488 33.0754 12.4832C33.0754 11.8292 33.1973 11.287 33.4409 10.8555C33.6845 10.4241 34.017 10.0798 34.4375 9.82257C34.8588 9.5654 35.3334 9.36828 35.8621 9.23293C36.3908 9.09757 36.9373 9.00197 37.5008 8.94614C38.1894 8.87 38.746 8.80317 39.1707 8.74733C39.5954 8.6915 39.9025 8.60098 40.0945 8.47577C40.2857 8.35057 40.3813 8.15599 40.3813 7.8912V7.83875C40.3813 7.27533 40.2147 6.83711 39.8805 6.5241C39.5472 6.21109 39.059 6.05458 38.4195 6.05458C37.7444 6.05458 37.2106 6.20094 36.818 6.4928C36.4247 6.78466 36.1582 7.12982 36.0194 7.52574L33.4621 7.16028C33.6642 6.4505 33.9976 5.85747 34.4637 5.38118C34.9298 4.9049 35.4983 4.5462 36.17 4.30594C36.8409 4.06569 37.5845 3.94556 38.3983 3.94556C38.955 3.94556 39.5116 4.00985 40.0683 4.13844C40.625 4.26703 41.1368 4.48445 41.6021 4.79069C42.0682 5.09693 42.4404 5.50723 42.7188 6.02244C42.9971 6.53764 43.1367 7.18058 43.1367 7.95296V15.7597H40.4964V14.1523H40.4126C40.2451 14.4721 40.0108 14.7732 39.7079 15.055C39.4051 15.3367 39.0294 15.5651 38.5811 15.7385C38.1327 15.9119 37.6014 15.9991 36.9898 15.9991V15.9999ZM37.6894 13.9746C38.2461 13.9746 38.7266 13.8655 39.1301 13.6464C39.5336 13.4273 39.8467 13.1346 40.0691 12.77C40.2916 12.4045 40.4033 12.006 40.4033 11.5746V10.2075C40.3128 10.2769 40.1664 10.342 39.9651 10.4004C39.7629 10.4596 39.5336 10.5137 39.2765 10.562C39.0184 10.611 38.7663 10.6525 38.5193 10.6872C38.2723 10.7218 38.0583 10.7498 37.8772 10.7709C37.4669 10.8268 37.0998 10.919 36.7766 11.0476C36.4534 11.1761 36.1971 11.3521 36.0093 11.5746C35.8215 11.7971 35.7276 12.0864 35.7276 12.4409C35.7276 12.9485 35.912 13.3317 36.28 13.5889C36.6489 13.8469 37.1184 13.9746 37.6886 13.9746H37.6894Z" fill="#1D5ADD"/>
<path d="M50.7296 4.09193V6.22126H44.0396V4.09193H50.7296ZM45.6782 1.31543H48.4234V12.2531C48.4234 12.7125 48.5241 13.0517 48.7263 13.2708C48.9285 13.4899 49.2482 13.5999 49.6865 13.5999C49.8041 13.5999 49.9369 13.5897 50.0832 13.5686C50.2296 13.5474 50.3616 13.5238 50.48 13.4958L50.9495 15.6455C50.6568 15.736 50.3616 15.8037 50.0629 15.8493C49.7634 15.8942 49.464 15.917 49.1653 15.917C48.0799 15.917 47.228 15.6302 46.6088 15.0558C45.9895 14.4814 45.6799 13.6972 45.6799 12.7023V1.31543H45.6782Z" fill="#1D5ADD"/>
<path d="M55.1863 8.93429V15.7597H52.4419V4.09191H55.1346V6.08504H55.27C55.5339 5.4311 55.9502 4.91082 56.517 4.52505C57.0838 4.13929 57.8062 3.94556 58.6827 3.94556C59.4897 3.94556 60.1928 4.1156 60.7909 4.45653C61.389 4.79746 61.8534 5.29658 62.1842 5.95391C62.515 6.61124 62.6799 7.40646 62.6799 8.33873V15.7597H59.9347V8.76679C59.9347 7.98764 59.7325 7.37685 59.329 6.93525C58.9255 6.49365 58.3688 6.27284 57.6591 6.27284C57.1794 6.27284 56.7522 6.3769 56.3808 6.58586C56.0085 6.79481 55.7167 7.09514 55.5043 7.48852C55.292 7.8819 55.1863 8.36326 55.1863 8.93429Z" fill="#1D5ADD"/>
<path d="M69.6146 15.9899C68.4455 15.9899 67.4371 15.7446 66.5885 15.2539C65.7392 14.7632 65.0869 14.0695 64.6318 13.1719C64.1758 12.2744 63.9482 11.2169 63.9482 9.99951C63.9482 8.78215 64.1741 7.7399 64.6267 6.83217C65.0785 5.92443 65.7155 5.21635 66.5369 4.70791C67.3575 4.20033 68.3253 3.94653 69.4386 3.94653C70.1552 3.94653 70.8354 4.06159 71.4791 4.29085C72.1229 4.52011 72.6931 4.87542 73.1914 5.35593C73.6888 5.83645 74.0797 6.4464 74.3656 7.18748C74.6507 7.92856 74.7937 8.81007 74.7937 9.83286V10.689H65.2341V8.84137H73.4266L72.1432 9.38364C72.1432 8.72293 72.0417 8.14682 71.8404 7.65615C71.6382 7.16548 71.3396 6.78141 70.9428 6.50308C70.546 6.22475 70.052 6.08601 69.4606 6.08601C68.8693 6.08601 68.3651 6.2256 67.9472 6.50308C67.5293 6.78141 67.2129 7.15533 66.9971 7.62485C66.7814 8.09437 66.674 8.61803 66.674 9.19583V10.4792C66.674 11.189 66.7975 11.7964 67.0445 12.3006C67.2916 12.8048 67.6392 13.1897 68.0885 13.4536C68.5368 13.7184 69.0605 13.8504 69.6586 13.8504C70.0486 13.8504 70.4048 13.7946 70.7288 13.6838C71.0519 13.5729 71.3303 13.4037 71.5637 13.1779C71.7964 12.952 71.9757 12.672 72.1009 12.3378L74.6685 12.6407C74.5018 13.3158 74.193 13.9054 73.7447 14.4096C73.2963 14.9147 72.7219 15.3038 72.0223 15.5787C71.3235 15.8537 70.5215 15.9907 69.6163 15.9907L69.6146 15.9899Z" fill="#1D5ADD"/>
<path d="M85.2217 7.19143L82.7277 7.45199C82.6237 7.06961 82.3978 6.73037 82.0493 6.43428C81.7016 6.13903 81.2109 5.99099 80.5773 5.99099C80.0071 5.99099 79.5291 6.11619 79.1425 6.3666C78.7559 6.61701 78.563 6.93764 78.563 7.32679C78.563 7.66772 78.6899 7.94774 78.9437 8.16684C79.1975 8.38595 79.6205 8.56192 80.2118 8.69389L82.2058 9.11096C83.2979 9.34022 84.116 9.71668 84.6583 10.2378C85.2005 10.7589 85.4721 11.4349 85.4721 12.2622C85.4721 12.9932 85.2598 13.6395 84.8351 14.2029C84.4104 14.7663 83.8241 15.2045 83.0763 15.5184C82.3284 15.8314 81.4672 15.9879 80.4935 15.9879C79.0672 15.9879 77.9209 15.6868 77.0546 15.0853C76.1883 14.4838 75.6681 13.6471 75.4946 12.5752L78.1772 12.3248C78.2957 12.8468 78.5545 13.2419 78.9547 13.5092C79.3548 13.7774 79.8683 13.911 80.4944 13.911C81.1204 13.911 81.6737 13.7774 82.0704 13.5092C82.4672 13.241 82.6651 12.9128 82.6651 12.5228C82.6651 11.8688 82.1432 11.4239 81.0992 11.187L79.1061 10.7691C77.986 10.5254 77.1578 10.1312 76.6223 9.5847C76.0868 9.0382 75.8186 8.34112 75.8186 7.49175C75.8186 6.76844 76.0174 6.14242 76.4134 5.61283C76.8101 5.0841 77.3634 4.6738 78.0732 4.38109C78.7829 4.08923 79.6035 3.94287 80.5358 3.94287C81.9063 3.94287 82.9832 4.23643 83.7658 4.82438C84.5483 5.41234 85.0339 6.20079 85.2217 7.18805V7.19143Z" fill="#1D5ADD"/>
<path d="M92.5005 4.09193V6.22126H85.8105V4.09193H92.5005ZM87.4492 1.31543H90.1944V12.2531C90.1944 12.7125 90.2951 13.0517 90.4973 13.2708C90.6995 13.4899 91.0192 13.5999 91.4575 13.5999C91.575 13.5999 91.7079 13.5897 91.8542 13.5686C92.0006 13.5474 92.1325 13.5238 92.251 13.4958L92.7205 15.6455C92.4278 15.736 92.1326 15.8037 91.8339 15.8493C91.5344 15.8942 91.235 15.917 90.9363 15.917C89.8509 15.917 88.999 15.6302 88.3798 15.0558C87.7605 14.4814 87.4509 13.6972 87.4509 12.7023V1.31543H87.4492Z" fill="#1D5ADD"/>
<path d="M98.8082 15.9899C97.6391 15.9899 96.6307 15.7446 95.7821 15.2539C94.9328 14.7632 94.2805 14.0695 93.8254 13.1719C93.3694 12.2744 93.1418 11.2169 93.1418 9.99951C93.1418 8.78215 93.3677 7.7399 93.8203 6.83217C94.2721 5.92443 94.9091 5.21635 95.7305 4.70791C96.5511 4.20033 97.5189 3.94653 98.6323 3.94653C99.3488 3.94653 100.029 4.06159 100.673 4.29085C101.317 4.52011 101.887 4.87542 102.385 5.35593C102.882 5.83645 103.273 6.4464 103.559 7.18748C103.844 7.92856 103.987 8.81007 103.987 9.83286V10.689H94.4277V8.84137H102.62L101.337 9.38364C101.337 8.72293 101.235 8.14682 101.034 7.65615C100.832 7.16548 100.533 6.78141 100.136 6.50308C99.7396 6.22475 99.2456 6.08601 98.6542 6.08601C98.0629 6.08601 97.5587 6.2256 97.1408 6.50308C96.7229 6.78141 96.4065 7.15533 96.1908 7.62485C95.975 8.09437 95.8676 8.61803 95.8676 9.19583V10.4792C95.8676 11.189 95.9911 11.7964 96.2381 12.3006C96.4852 12.8048 96.8328 13.1897 97.2821 13.4536C97.7304 13.7184 98.2541 13.8504 98.8522 13.8504C99.2422 13.8504 99.5984 13.7946 99.9224 13.6838C100.246 13.5729 100.524 13.4037 100.757 13.1779C100.991 12.952 101.169 12.672 101.295 12.3378L103.862 12.6407C103.695 13.3158 103.387 13.9054 102.938 14.4096C102.49 14.9147 101.915 15.3038 101.216 15.5787C100.517 15.8537 99.7151 15.9907 98.8099 15.9907L98.8082 15.9899Z" fill="#1D5ADD"/>
</svg>
