<svg width="60" height="60" viewBox="0 0 60 60" fill="none" xmlns="http://www.w3.org/2000/svg">
<path fill-rule="evenodd" clip-rule="evenodd" d="M10.8562 44.7036L6.41438 49.1455L7.30312 50.0324L11.7431 45.5924L10.8562 44.7036ZM5.52562 50.0324L4.63875 50.9212L5.52562 51.8099L6.41438 50.9212L5.52562 50.0324ZM12.6319 46.4793L5.52562 53.5856L6.41438 54.4743L13.5206 47.368L12.6319 46.4793ZM4.63875 54.4743L3.75 55.3631L4.63875 56.25L5.52562 55.361L4.63875 54.4743ZM14.4075 48.2568L9.07875 53.5856L9.9675 54.4743L15.2963 49.1455L14.4075 48.2568ZM8.19187 54.4743L7.30312 55.3631L8.19187 56.25L9.07875 55.361L8.19187 54.4743Z" fill="#F0DFA7"/>
<path d="M40.635 24.2289C40.3371 24.5268 39.9834 24.7632 39.5942 24.9245C39.2049 25.0858 38.7876 25.1688 38.3663 25.1688C37.9449 25.1688 37.5277 25.0858 37.1384 24.9245C36.7491 24.7632 36.3954 24.5268 36.0975 24.2289C35.7996 23.931 35.5632 23.5773 35.4019 23.188C35.2406 22.7987 35.1576 22.3815 35.1576 21.9601C35.1576 21.5388 35.2406 21.1215 35.4019 20.7322C35.5632 20.343 35.7996 19.9893 36.0975 19.6914C36.3954 19.3934 36.7491 19.157 37.1384 18.9957C37.5277 18.8345 37.9449 18.7515 38.3663 18.7515C38.7876 18.7515 39.2049 18.8345 39.5942 18.9957C39.9834 19.157 40.3371 19.3934 40.635 19.6914C40.933 19.9893 41.1694 20.343 41.3307 20.7322C41.4919 21.1215 41.5749 21.5388 41.5749 21.9601C41.5749 22.3815 41.4919 22.7987 41.3307 23.188C41.1694 23.5773 40.933 23.931 40.635 24.2289Z" fill="#F0DFA7"/>
<path d="M42.75 17.0962L42.0562 16.5299L41.8987 16.4269L41.0325 15.9694L40.2037 15.5343L39.33 17.1937L40.1587 17.6288L40.9481 18.047L41.5669 18.5494L42.2869 19.1419L43.4756 17.6888L42.75 17.0962ZM42.8869 20.2069L42.9769 21.1405L43.0537 21.9599L42.9712 22.8299L42.8831 23.7619L44.7469 23.9436L44.8387 23.0082L44.9287 22.048V21.8718L44.8444 20.9625L44.7525 20.0286L42.8869 20.2069ZM36.6656 15.6375L35.9794 15.8438L35.8087 15.9094L34.83 16.4288L34.6744 16.5318L34.6312 16.5656L33.9056 17.1562L35.0906 18.6112L35.7806 18.047L36.5925 17.6155L37.1962 17.4393L38.0962 17.1713L37.5637 15.3713L36.6656 15.6375ZM40.3781 26.175L40.1344 26.3043L39.2719 26.5611L38.94 26.5911L38.0044 26.6813L38.1844 28.5488L39.1181 28.4588L39.5306 28.4194L39.7087 28.3856L40.7494 28.0743L40.92 28.0068L41.25 27.8344L42.0806 27.3956L41.2087 25.7363L40.3781 26.175ZM32.3962 19.0744L32.13 19.9744L31.9406 20.6175L31.9031 20.7938L31.8 21.8718V22.048L31.8131 22.17L31.9031 23.1037L33.7706 22.9256L33.6769 21.9938V21.9657L33.7631 21.0694L33.9262 20.5068L34.1944 19.6086L32.3962 19.0744ZM35.8744 25.9237L35.79 25.8768L35.0531 25.273L34.7681 24.9262L34.1719 24.2007L32.7225 25.3874L33.3131 26.113L33.6562 26.535L33.7875 26.6662L34.6744 27.3863L34.83 27.4893L34.9987 27.5794L35.8294 28.0161L36.7012 26.3568L35.8744 25.9237Z" fill="#F0DFA7"/>
<path fill-rule="evenodd" clip-rule="evenodd" d="M21.9806 18.4744C18.7744 18.0806 15.2869 19.2337 12.0431 21.5025C7.72312 24.5287 3.72375 29.552 1.01437 35.8914C0.932574 36.0823 0.916521 36.295 0.968736 36.4961C1.02095 36.6972 1.13848 36.8751 1.30285 37.0021C1.46723 37.1292 1.66915 37.1982 1.8769 37.1981C2.08464 37.1979 2.28645 37.1285 2.45062 37.0012C6.37312 33.9581 9.44062 32.34 11.6006 31.9725C13.7625 31.605 14.9737 32.2163 16.0331 34.0594C16.1196 34.2101 16.2462 34.3338 16.3989 34.4167C16.5515 34.4996 16.7242 34.5384 16.8977 34.5288C17.0711 34.5193 17.2385 34.4618 17.3812 34.3627C17.5239 34.2635 17.6362 34.1269 17.7056 33.9676C19.7195 29.2837 22.3014 24.865 25.3931 20.8108C25.4775 20.7013 25.5365 20.5743 25.5661 20.4393C25.5957 20.3043 25.5951 20.1644 25.5642 20.0296C25.5334 19.8949 25.4732 19.7687 25.3878 19.66C25.3025 19.5512 25.1942 19.4626 25.0706 19.4007C24.1012 18.9173 23.056 18.604 21.9806 18.4744ZM18.9769 20.4244C20.4412 20.1619 21.7612 20.5182 23.0569 20.9307C20.5226 24.4188 18.3471 28.1539 16.5637 32.0793C15.2044 30.63 13.4587 29.7544 11.2875 30.1238C9.40687 30.4425 7.17562 31.6276 4.73062 33.2064C7.14375 28.9051 10.0012 25.2245 13.1212 23.0401C15.105 21.6526 17.0906 20.7657 18.9769 20.4244ZM39.7706 34.4158C39.5614 34.4137 39.3574 34.4815 39.1912 34.6087C35.1386 37.7017 30.7211 40.2849 26.0381 42.3001C25.8796 42.3695 25.7434 42.4816 25.6446 42.6237C25.5459 42.7658 25.4883 42.9323 25.4784 43.105C25.4685 43.2778 25.5066 43.45 25.5886 43.6024C25.6705 43.7548 25.793 43.8817 25.9425 43.9688C27.7856 45.0282 28.4006 46.2414 28.0331 48.4014C27.6656 50.5614 26.0456 53.6289 23.0025 57.5514C22.8738 57.7153 22.8034 57.9173 22.8024 58.1256C22.8014 58.334 22.8698 58.5368 22.9969 58.702C23.124 58.8671 23.3025 58.9851 23.5042 59.0375C23.7058 59.0899 23.9192 59.0737 24.1106 58.9913C30.45 56.2838 35.4731 52.2787 38.4994 47.9569C41.5256 43.635 42.5737 38.8743 40.6012 34.9312C40.5236 34.7772 40.405 34.6477 40.2585 34.5568C40.1119 34.4658 39.9431 34.417 39.7706 34.4158ZM39.0712 36.947C40.0125 39.9095 39.4275 43.3594 36.9619 46.8807C34.7775 50.0007 31.1006 52.862 26.7956 55.2751C28.3762 52.8301 29.5594 50.5951 29.88 48.7163C30.2494 46.5413 29.3737 44.7977 27.9244 43.4383C31.8491 41.6546 35.5836 39.481 39.0712 36.947ZM13.9237 36.4876L13.3256 37.5862L11.28 41.3401L18.8006 48.7932L23.4844 46.0464L13.9237 36.4876ZM14.37 39.5869L20.4412 45.6582L19.0987 46.4458L13.6012 41.0007L14.37 39.5869ZM42.1331 5.57448C41.9458 5.57335 41.7623 5.6283 41.6066 5.73241C41.4508 5.83652 41.3297 5.98492 41.2591 6.15847C41.1885 6.33202 41.1715 6.52276 41.2103 6.70607C41.2491 6.88938 41.342 7.05681 41.4769 7.18684L53.0569 18.7969C53.1431 18.8866 53.2464 18.9585 53.3606 19.0079C53.4748 19.0573 53.5977 19.0834 53.7222 19.0848C53.8467 19.0862 53.9702 19.063 54.0855 19.0161C54.2008 18.9693 54.3057 18.9 54.3939 18.8122C54.4822 18.7244 54.5521 18.6199 54.5996 18.5048C54.647 18.3898 54.6711 18.2665 54.6704 18.142C54.6697 18.0176 54.6442 17.8945 54.5954 17.7799C54.5466 17.6654 54.4755 17.5618 54.3862 17.4751L42.8025 5.86127C42.7155 5.77156 42.6115 5.70021 42.4966 5.65127C42.3816 5.60233 42.2581 5.57499 42.1331 5.57448Z" fill="#F0DFA7"/>
<path fill-rule="evenodd" clip-rule="evenodd" d="M57.1875 1.87305C51.7875 1.87305 46.83 3.00366 42.3375 4.91054C42.306 4.92447 42.2754 4.94005 42.2456 4.95734L40.8919 5.71861C28.56 11.9699 19.98 23.5293 15.5119 34.378C15.4421 34.5492 15.4244 34.7371 15.4611 34.9182C15.4978 35.0994 15.5872 35.2656 15.7181 35.3961L24.5981 44.2799C24.7295 44.4106 24.8968 44.4994 25.0786 44.5351C25.2605 44.5708 25.4489 44.5518 25.62 44.4804C32.3306 41.7186 39.375 37.3836 45.2644 31.558C45.3519 31.4713 45.4215 31.3683 45.4692 31.2547C45.5169 31.1412 45.5418 31.0192 45.5424 30.8961C45.543 30.7729 45.5193 30.6508 45.4728 30.5367C45.4262 30.4227 45.3576 30.3189 45.2709 30.2314C45.1843 30.1439 45.0812 30.0742 44.9676 30.0265C44.8541 29.9788 44.7322 29.9541 44.609 29.9535C44.4858 29.9529 44.3637 29.9765 44.2497 30.0231C44.1357 30.0697 44.0319 30.1383 43.9444 30.225C38.4131 35.7 31.7794 39.7873 25.44 42.4704L17.5237 34.5504C21.9075 24.2079 30.1294 13.2767 41.7375 7.39105C41.7501 7.38508 41.7626 7.37881 41.775 7.37228L43.095 6.6299C47.07 4.94615 51.4387 3.99181 56.1469 3.85493C56.0156 8.58743 55.11 13.0368 53.4281 17.0043C53.4244 17.0043 53.4244 17.0043 53.4225 17.0231L52.7925 18.268C51.1518 21.4733 49.1317 24.4699 46.7756 27.193C46.6954 27.2866 46.6343 27.3951 46.5959 27.5123C46.5576 27.6294 46.5427 27.7528 46.5521 27.8757C46.5615 27.9987 46.595 28.1187 46.6507 28.2287C46.7065 28.3386 46.7833 28.4366 46.8769 28.5168C46.9704 28.5971 47.0789 28.6582 47.1961 28.6965C47.3132 28.7349 47.4368 28.7496 47.5597 28.7402C47.6826 28.7308 47.8025 28.6973 47.9125 28.6416C48.0224 28.5859 48.1204 28.509 48.2006 28.4154C50.6546 25.5778 52.7584 22.4555 54.4669 19.1155L55.1231 17.8143C55.1319 17.7952 55.14 17.7758 55.1475 17.7562C57.06 13.2524 58.125 8.21236 58.125 2.81799C58.125 2.56935 58.0262 2.33096 57.8504 2.15514C57.6746 1.97933 57.4361 1.88049 57.1875 1.88049V1.87305Z" fill="#F0DFA7"/>
</svg>
