<svg width="48" height="48" viewBox="0 0 48 48" fill="none" xmlns="http://www.w3.org/2000/svg">
<g clip-path="url(#clip0_51_779)">
<path fill-rule="evenodd" clip-rule="evenodd" d="M31.89 24.9301C32.1276 25.4087 32.4651 25.8307 32.8797 26.1679C33.2943 26.505 33.7764 26.7493 34.2934 26.8844C34.8104 27.0194 35.3504 27.042 35.8769 26.9506C36.4034 26.8593 36.9042 26.6563 37.3455 26.355C38.0538 25.8755 38.5766 25.1679 38.8268 24.35C39.0771 23.5321 39.0397 22.6533 38.721 21.8596C38.4053 21.0652 37.8271 20.4028 37.0826 19.9827C36.3381 19.5627 35.4722 19.4103 34.629 19.551C33.615 19.7535 33.36 18.2055 34.386 18.072C35.5662 17.878 36.7773 18.0925 37.8192 18.6799C38.861 19.2674 39.6712 20.1926 40.116 21.3029C40.5586 22.4143 40.6089 23.6436 40.2584 24.7874C39.908 25.9313 39.1778 26.9214 38.1885 27.5941C37.1976 28.2648 36.0075 28.5774 34.8149 28.4803C33.6222 28.3832 32.4984 27.8821 31.629 27.0599C31.1811 26.6357 30.8119 26.1355 30.5385 25.5825" fill="#F0DFA7"/>
<path fill-rule="evenodd" clip-rule="evenodd" d="M0.75 11.9985C0.551088 11.9985 0.360322 12.0776 0.219669 12.2183C0.0790171 12.3589 0 12.5496 0 12.7485V33.7485C0 33.9475 0.0790171 34.1383 0.219669 34.279C0.360322 34.4196 0.551088 34.4985 0.75 34.4985H30.738C30.8707 34.499 31.0012 34.4644 31.1161 34.398C31.231 34.3316 31.3262 34.2358 31.392 34.1206L37.392 23.6206C37.4567 23.5073 37.4908 23.379 37.4908 23.2485C37.4908 23.1181 37.4567 22.99 37.392 22.8767L31.392 12.3767C31.3262 12.2614 31.231 12.1657 31.1161 12.0992C31.0012 12.0328 30.8707 11.9981 30.738 11.9985H27.129C26.9301 11.9985 26.7393 12.0776 26.5987 12.2183C26.458 12.3589 26.379 12.5496 26.379 12.7485C26.379 12.9475 26.458 13.1383 26.5987 13.279C26.7393 13.4196 26.9301 13.4985 27.129 13.4985H30.3045L35.877 23.2485L30.3045 32.9985H1.5V13.4985H18.744C18.9429 13.4985 19.1337 13.4196 19.2743 13.279C19.415 13.1383 19.494 12.9475 19.494 12.7485C19.494 12.5496 19.415 12.3589 19.2743 12.2183C19.1337 12.0776 18.9429 11.9985 18.744 11.9985H0.75ZM22.254 11.9985C22.0551 11.9985 21.8643 12.0776 21.7237 12.2183C21.583 12.3589 21.504 12.5496 21.504 12.7485C21.504 12.9475 21.583 13.1383 21.7237 13.279C21.8643 13.4196 22.0551 13.4985 22.254 13.4985H23.637C23.8359 13.4985 24.0267 13.4196 24.1673 13.279C24.308 13.1383 24.387 12.9475 24.387 12.7485C24.387 12.5496 24.308 12.3589 24.1673 12.2183C24.0267 12.0776 23.8359 11.9985 23.637 11.9985H22.254Z" fill="#F0DFA7"/>
<path fill-rule="evenodd" clip-rule="evenodd" d="M32.988 22.4971C32.9856 21.5044 32.5906 20.553 31.8891 19.8506C31.1876 19.1483 30.2367 18.7521 29.244 18.7485C28.2513 18.7521 27.3004 19.1483 26.5989 19.8506C25.8974 20.553 25.5024 21.5044 25.5 22.4971C25.5024 23.4894 25.8975 24.4405 26.5991 25.1424C27.3007 25.8443 28.2516 26.2399 29.244 26.2427C30.2364 26.2399 31.1873 25.8443 31.8889 25.1424C32.5905 24.4405 32.9856 23.4894 32.988 22.4971ZM31.488 22.4971C31.488 23.7451 30.4935 24.741 29.244 24.741C28.9487 24.7426 28.6561 24.6856 28.383 24.5733C28.11 24.461 27.8619 24.2956 27.6532 24.0868C27.4445 23.8779 27.2793 23.6299 27.1671 23.3568C27.055 23.0836 26.9982 22.7909 27 22.4956C26.9984 22.2003 27.0553 21.9076 27.1675 21.6345C27.2797 21.3613 27.4449 21.1132 27.6535 20.9042C27.8622 20.6953 28.1102 20.5297 28.3832 20.4172C28.6561 20.3046 28.9487 20.2473 29.244 20.2485C29.5393 20.2473 29.8319 20.3046 30.1048 20.4172C30.3778 20.5297 30.6258 20.6953 30.8345 20.9042C31.0431 21.1132 31.2083 21.3613 31.3205 21.6345C31.4326 21.9076 31.4896 22.2018 31.488 22.4971Z" fill="#F0DFA7"/>
<path fill-rule="evenodd" clip-rule="evenodd" d="M38.988 22.4985V23.9985H42.738V22.4985H38.988Z" fill="#F0DFA7"/>
<path fill-rule="evenodd" clip-rule="evenodd" d="M41.988 23.2394C41.9892 23.1407 42.0099 23.0432 42.0488 22.9525C42.0878 22.8617 42.1443 22.7795 42.2151 22.7106C42.2859 22.6418 42.3696 22.5875 42.4614 22.5511C42.5532 22.5147 42.6513 22.4968 42.75 22.4984C44.1424 22.4984 45.4778 23.0515 46.4623 24.0361C47.4469 25.0207 48 26.356 48 27.7484C48 27.9473 47.921 28.1382 47.7803 28.2788C47.6397 28.4195 47.4489 28.4984 47.25 28.4984C47.0511 28.4984 46.8603 28.4195 46.7197 28.2788C46.579 28.1382 46.5 27.9473 46.5 27.7484C46.5002 27.2559 46.4034 26.7683 46.215 26.3132C46.0266 25.8581 45.7504 25.4445 45.4021 25.0963C45.0538 24.748 44.6404 24.4719 44.1853 24.2835C43.7303 24.0951 43.2425 23.9982 42.75 23.9984C42.6498 24 42.5502 23.9815 42.4572 23.944C42.3642 23.9065 42.2797 23.8507 42.2087 23.7799C42.1376 23.7092 42.0815 23.6249 42.0436 23.532C42.0057 23.4392 41.9868 23.3397 41.988 23.2394Z" fill="#F0DFA7"/>
<path d="M4.554 19.9711C4.554 23.5741 8.4285 24.0615 8.4285 26.655C8.4285 27.5565 8.031 27.8805 7.401 27.8805C6.771 27.8805 6.3735 27.5565 6.3735 26.655V25.755H4.5V26.529C4.5 28.548 5.5095 29.7 7.455 29.7C9.4005 29.7 10.41 28.548 10.41 26.529C10.41 22.926 6.5355 22.4401 6.5355 19.8451C6.5355 18.9451 6.8955 18.6014 7.527 18.6014C8.157 18.6014 8.517 18.9436 8.517 19.8451V20.3669H10.392V19.9711C10.392 17.9536 9.402 16.8 7.473 16.8C5.5455 16.8 4.554 17.9536 4.554 19.9711ZM13.509 18.7455H16.9335V16.944H11.5275V29.5561H16.9335V27.756H13.5105V24.0615H16.2315V22.2586H13.5105L13.509 18.7455ZM19.9635 19.8451C19.9635 18.9451 20.361 18.6014 20.991 18.6014C21.621 18.6014 22.0185 18.9436 22.0185 19.8451V26.655C22.0185 27.5565 21.621 27.9001 20.991 27.9001C20.361 27.9001 19.9635 27.5565 19.9635 26.655V19.8451ZM17.982 26.529C17.982 28.548 19.0455 29.7 20.991 29.7C22.9365 29.7 24 28.548 24 26.529V19.9711C24 17.9536 22.9365 16.8 20.991 16.8C19.0455 16.8 17.982 17.9536 17.982 19.9711V26.529Z" fill="#F0DFA7"/>
</g>
<defs>
<clipPath id="clip0_51_779">
<rect width="48" height="48" fill="white"/>
</clipPath>
</defs>
</svg>
