<svg width="52" height="50" viewBox="0 0 52 50" fill="none" xmlns="http://www.w3.org/2000/svg">
<path d="M20.1298 4.19772C21.9484 -1.39924 29.8666 -1.39923 31.6852 4.19773L33.6364 10.203C34.4497 12.706 36.7822 14.4007 39.4141 14.4007H45.7284C51.6134 14.4007 54.0602 21.9314 49.2992 25.3905L44.1908 29.1019C42.0616 30.6489 41.1706 33.391 41.9839 35.894L43.9351 41.8993C45.7537 47.4962 39.3477 52.1504 34.5867 48.6913L29.4783 44.9799C27.3491 43.4329 24.4659 43.4329 22.3367 44.9799L17.2283 48.6913C12.4673 52.1504 6.0613 47.4962 7.87987 41.8993L9.83109 35.894C10.6444 33.391 9.75343 30.6489 7.62422 29.1019L2.51584 25.3905C-2.24522 21.9314 0.201647 14.4007 6.08664 14.4007H12.4009C15.0328 14.4007 17.3653 12.706 18.1786 10.203L20.1298 4.19772Z" fill="#F0DFA7"/>
</svg>
